<svg width="22" height="22" viewBox="0 0 22 22" fill="none" xmlns="http://www.w3.org/2000/svg">
<path d="M2.75 1.25H7.75L10.75 0.75L12.25 1.25L14.75 2.25L15.75 3.75V6.75L15.25 7.25H12.25H10.25L9.25 7.75L7.75 8.25L7.25 9.75V12.25V14.75L6.75 15.75L4.75 15.25L2.25 14.75L0.75 11.25V7.25L1.25 3.25L2.75 1.25Z" fill="white"/>
<path d="M15.7499 7.75C15.7475 4.79291 15.7028 3.26121 14.842 2.21243C14.6758 2.00989 14.4901 1.82418 14.2876 1.65796C13.1812 0.75 11.5375 0.75 8.25 0.75C4.96252 0.75 3.31878 0.75 2.21243 1.65796C2.00989 1.82417 1.82418 2.00989 1.65796 2.21243C0.75 3.31878 0.75 4.96252 0.75 8.25C0.75 11.5375 0.75 13.1812 1.65796 14.2876C1.82417 14.4901 2.00989 14.6758 2.21243 14.842C3.26121 15.7028 4.79291 15.7475 7.75 15.7499" stroke="#101010" stroke-width="1.5" stroke-linecap="round" stroke-linejoin="round"/>
<path d="M12.75 7C12.3358 7 12 7.33579 12 7.75C12 8.16421 12.3358 8.5 12.75 8.5V7.75V7ZM15.75 8.5C16.1642 8.5 16.5 8.16421 16.5 7.75C16.5 7.33579 16.1642 7 15.75 7V7.75V8.5ZM8.5 12.75C8.5 12.3358 8.16421 12 7.75 12C7.33579 12 7 12.3358 7 12.75H7.75H8.5ZM7 15.75C7 16.1642 7.33579 16.5 7.75 16.5C8.16421 16.5 8.5 16.1642 8.5 15.75H7.75H7ZM10.308 8.49363C10.7187 8.43978 11.0079 8.06318 10.9541 7.65249C10.9002 7.24179 10.5236 6.95251 10.1129 7.00637L10.2104 7.75L10.308 8.49363ZM8.50582 8.37642L8.02935 7.79722L8.02935 7.79722L8.50582 8.37642ZM7.01469 9.60231C6.93312 10.0084 7.1962 10.4037 7.60231 10.4853C8.00841 10.5669 8.40374 10.3038 8.48531 9.89769L7.75 9.75L7.01469 9.60231ZM20.0147 9.89769C20.0963 10.3038 20.4916 10.5669 20.8977 10.4853C21.3038 10.4037 21.5669 10.0084 21.4853 9.60231L20.75 9.75L20.0147 9.89769ZM19.9942 8.37642L19.5177 8.95563L19.5177 8.95563L19.9942 8.37642ZM18.3871 7.00637C17.9764 6.95251 17.5998 7.24179 17.5459 7.65249C17.4921 8.06318 17.7813 8.43978 18.192 8.49363L18.2896 7.75L18.3871 7.00637ZM18.192 20.0064C17.7813 20.0602 17.4921 20.4368 17.5459 20.8475C17.5998 21.2582 17.9764 21.5475 18.3871 21.4936L18.2896 20.75L18.192 20.0064ZM19.9942 20.1236L20.4707 20.7028L20.4707 20.7028L19.9942 20.1236ZM21.4853 18.8977C21.5669 18.4916 21.3038 18.0963 20.8977 18.0147C20.4916 17.9331 20.0963 18.1962 20.0147 18.6023L20.75 18.75L21.4853 18.8977ZM8.48531 18.6023C8.40374 18.1962 8.00841 17.9331 7.60231 18.0147C7.1962 18.0963 6.93312 18.4916 7.01469 18.8977L7.75 18.75L8.48531 18.6023ZM8.50582 20.1236L8.98229 19.5444H8.98229L8.50582 20.1236ZM10.1129 21.4936C10.5236 21.5475 10.9002 21.2582 10.9541 20.8475C11.0079 20.4368 10.7187 20.0602 10.308 20.0064L10.2104 20.75L10.1129 21.4936ZM12.75 20C12.3358 20 12 20.3358 12 20.75C12 21.1642 12.3358 21.5 12.75 21.5V20.75V20ZM15.75 21.5C16.1642 21.5 16.5 21.1642 16.5 20.75C16.5 20.3358 16.1642 20 15.75 20V20.75V21.5ZM21.5 12.75C21.5 12.3358 21.1642 12 20.75 12C20.3358 12 20 12.3358 20 12.75H20.75H21.5ZM20 15.75C20 16.1642 20.3358 16.5 20.75 16.5C21.1642 16.5 21.5 16.1642 21.5 15.75H20.75H20ZM12.75 7.75V8.5H15.75V7.75V7H12.75V7.75ZM7.75 12.75H7V15.75H7.75H8.5V12.75H7.75ZM10.2104 7.75L10.1129 7.00637C9.29737 7.11331 8.60138 7.32665 8.02935 7.79722L8.50582 8.37642L8.98229 8.95562C9.24784 8.73717 9.62752 8.58286 10.308 8.49363L10.2104 7.75ZM7.75 9.75L8.48531 9.89769C8.58167 9.41799 8.73729 9.15717 8.98229 8.95562L8.50582 8.37642L8.02935 7.79722C7.44985 8.27394 7.15953 8.88118 7.01469 9.60231L7.75 9.75ZM20.75 9.75L21.4853 9.60231C21.3405 8.88118 21.0502 8.27394 20.4707 7.79722L19.9942 8.37642L19.5177 8.95563C19.7627 9.15717 19.9183 9.41799 20.0147 9.89769L20.75 9.75ZM18.2896 7.75L18.192 8.49363C18.8725 8.58286 19.2522 8.73717 19.5177 8.95563L19.9942 8.37642L20.4707 7.79722C19.8986 7.32665 19.2026 7.11331 18.3871 7.00637L18.2896 7.75ZM18.2896 20.75L18.3871 21.4936C19.2026 21.3867 19.8986 21.1734 20.4707 20.7028L19.9942 20.1236L19.5177 19.5444C19.2522 19.7628 18.8725 19.9171 18.192 20.0064L18.2896 20.75ZM20.75 18.75L20.0147 18.6023C19.9183 19.082 19.7627 19.3428 19.5177 19.5444L19.9942 20.1236L20.4707 20.7028C21.0502 20.2261 21.3405 19.6188 21.4853 18.8977L20.75 18.75ZM7.75 18.75L7.01469 18.8977C7.15953 19.6188 7.44985 20.2261 8.02934 20.7028L8.50582 20.1236L8.98229 19.5444C8.73729 19.3428 8.58167 19.082 8.48531 18.6023L7.75 18.75ZM10.2104 20.75L10.308 20.0064C9.62752 19.9171 9.24784 19.7628 8.98229 19.5444L8.50582 20.1236L8.02934 20.7028C8.60137 21.1734 9.29737 21.3867 10.1129 21.4936L10.2104 20.75ZM12.75 20.75V21.5H15.75V20.75V20H12.75V20.75ZM20.75 12.75H20V15.75H20.75H21.5V12.75H20.75Z" fill="#101010"/>
</svg>
