<svg width="20" height="14" viewBox="0 0 20 14" fill="none" xmlns="http://www.w3.org/2000/svg">
<path d="M10 -0.0241699C7.84137 -0.0229069 5.73309 0.645406 3.94954 1.89379C2.166 3.14218 0.78978 4.91282 0 6.97529C0.788548 9.03869 2.16444 10.8103 3.94824 12.059C5.73204 13.3077 7.84097 13.9756 10 13.9756C12.159 13.9756 14.268 13.3077 16.0518 12.059C17.8356 10.8103 19.2115 9.03869 20 6.97529C19.2102 4.91282 17.834 3.14218 16.0505 1.89379C14.2669 0.645406 12.1586 -0.0229069 10 -0.0241699ZM10 11.647C9.10103 11.647 8.22225 11.3733 7.47479 10.8606C6.72732 10.3478 6.14474 9.61907 5.80072 8.76641C5.4567 7.91375 5.36669 6.97552 5.54207 6.07034C5.71745 5.16517 6.15035 4.33371 6.78601 3.68112C7.42168 3.02852 8.23157 2.5841 9.11326 2.40405C9.99496 2.224 10.9089 2.31641 11.7394 2.66959C12.5699 3.02277 13.2798 3.62086 13.7792 4.38823C14.2787 5.1556 14.5453 6.05779 14.5453 6.98069C14.5447 8.2181 14.0657 9.40466 13.2134 10.2796C12.3611 11.1546 11.2053 11.6464 10 11.647ZM10 4.18069C9.46058 4.18069 8.93327 4.34491 8.48476 4.65258C8.03624 4.96025 7.68667 5.39755 7.48024 5.90918C7.27381 6.42081 7.2198 6.9838 7.32504 7.52695C7.43027 8.07009 7.69003 8.56901 8.07146 8.96059C8.45289 9.35218 8.93886 9.61885 9.46792 9.72689C9.99697 9.83493 10.5454 9.77948 11.0437 9.56756C11.5421 9.35563 11.968 8.99675 12.2677 8.53629C12.5674 8.07583 12.7274 7.53448 12.7274 6.98069C12.7286 6.61238 12.659 6.24744 12.5224 5.90685C12.3859 5.56625 12.1851 5.25672 11.9316 4.99603C11.6782 4.73534 11.3771 4.52863 11.0456 4.38778C10.7141 4.24693 10.3588 4.17472 10 4.17529V4.18069Z" fill="#B5B5B5"/>
</svg>
