<svg width="42" height="42" viewBox="0 0 42 42" fill="none" xmlns="http://www.w3.org/2000/svg">
<rect width="42" height="42" rx="21" fill="#8F9191"/>
<path d="M16 11.5C14.5927 11.6654 13.6243 12.0149 12.8912 12.7536C11.5 14.1557 11.5 16.4124 11.5 20.9258C11.5 25.4391 11.5 27.6958 12.8912 29.0979C14.2825 30.5 16.5217 30.5 21 30.5C25.4783 30.5 27.7175 30.5 29.1088 29.0979C30.5 27.6958 30.5 25.4391 30.5 20.9258C30.5 16.4124 30.5 14.1557 29.1088 12.7536C28.3757 12.0149 27.4073 11.6654 26 11.5" stroke="white" stroke-width="1.5" stroke-linecap="round" stroke-linejoin="round"/>
<path d="M18.5 17C18.9915 17.5057 20.2998 19.5 21 19.5M23.5 17C23.0085 17.5057 21.7002 19.5 21 19.5M21 19.5V11.5" stroke="white" stroke-width="1.5" stroke-linecap="round" stroke-linejoin="round"/>
<path d="M30.5 22.5H25.5743C24.7322 22.5 24.0706 23.2036 23.6995 23.9472C23.2963 24.7551 22.4889 25.5 21 25.5C19.5111 25.5 18.7037 24.7551 18.3005 23.9472C17.9294 23.2036 17.2678 22.5 16.4257 22.5H11.5" stroke="white" stroke-width="1.5" stroke-linejoin="round"/>
</svg>
