<svg width="24" height="27" viewBox="0 0 24 27" fill="none" xmlns="http://www.w3.org/2000/svg">
<g clip-path="url(#clip0_446_98)">
<mask id="mask0_446_98" style="mask-type:luminance" maskUnits="userSpaceOnUse" x="0" y="0" width="20" height="27">
<path d="M0 0.199997H19.2V26.1515H0V0.199997Z" fill="white"/>
</mask>
<g mask="url(#mask0_446_98)">
<path fill-rule="evenodd" clip-rule="evenodd" d="M19.2 24.5514V1.80043C19.2 1.56914 19.1499 1.3406 19.0531 1.13054C18.9563 0.920483 18.8151 0.7339 18.6393 0.583639C18.4635 0.433378 18.2572 0.32301 18.0346 0.260135C17.812 0.19726 17.5785 0.183371 17.35 0.219426L1.35 2.74143C0.973683 2.80127 0.631032 2.99332 0.383595 3.2831C0.136158 3.57288 0.000149643 3.94138 1.95851e-09 4.32243V22.0294C-1.88426e-05 22.4104 0.135953 22.7789 0.383441 23.0685C0.630929 23.3582 0.973679 23.55 1.35 23.6094L17.35 26.1319C17.5785 26.168 17.812 26.1541 18.0346 26.0912C18.2572 26.0283 18.4635 25.918 18.6393 25.7677C18.8151 25.6175 18.9563 25.4309 19.0531 25.2208C19.1499 25.0108 19.2 24.7827 19.2 24.5514Z" fill="#30A364"/>
</g>
<path fill-rule="evenodd" clip-rule="evenodd" d="M22.9998 23.8425H20.7998V2.509H22.9998C23.265 2.509 23.5194 2.61436 23.7069 2.8019C23.8944 2.98943 23.9998 3.24379 23.9998 3.509V22.8425C23.9998 23.1077 23.8944 23.3621 23.7069 23.5496C23.5194 23.7371 23.265 23.8425 22.9998 23.8425Z" fill="#30A364"/>
<path fill-rule="evenodd" clip-rule="evenodd" d="M14.083 7.18201H13.468C13.239 7.18201 13.023 7.29151 12.887 7.47601L9.5995 11.965L6.313 7.47601C6.24593 7.38482 6.15835 7.3107 6.05733 7.25963C5.95631 7.20855 5.8447 7.18196 5.7315 7.18201H5.117C5.05031 7.1818 4.98488 7.20011 4.92799 7.23492C4.8711 7.26972 4.825 7.31964 4.79482 7.37911C4.76465 7.43858 4.75158 7.50526 4.75709 7.57173C4.76259 7.63819 4.78645 7.70181 4.826 7.75551L8.754 13.1185L4.826 18.481C4.78645 18.5347 4.76259 18.5983 4.75709 18.6648C4.75158 18.7313 4.76465 18.7979 4.79482 18.8574C4.825 18.9169 4.8711 18.9668 4.92799 19.0016C4.98488 19.0364 5.05031 19.0547 5.117 19.0545H5.732C5.961 19.0545 6.177 18.9445 6.313 18.76L9.5995 14.2715L12.887 18.76C13.023 18.945 13.239 19.055 13.4685 19.055H14.083C14.378 19.055 14.548 18.7195 14.374 18.481L10.445 13.1185L14.374 7.75551C14.4134 7.70177 14.4371 7.63817 14.4425 7.57178C14.4479 7.50538 14.4348 7.43879 14.4046 7.37938C14.3745 7.31998 14.3285 7.27009 14.2717 7.23525C14.2149 7.20041 14.1496 7.18198 14.083 7.18201Z" fill="white"/>
</g>
<defs>
<clipPath id="clip0_446_98">
<rect width="24" height="26.5" fill="white"/>
</clipPath>
</defs>
</svg>
