<svg width="20" height="14" viewBox="0 0 20 14" fill="none" xmlns="http://www.w3.org/2000/svg">
<g clip-path="url(#clip0_9_154)">
<path d="M10 0C7.84137 0.00126305 5.73309 0.669576 3.94954 1.91796C2.166 3.16635 0.78978 4.93699 0 6.99946C0.788548 9.06286 2.16444 10.8344 3.94824 12.0832C5.73204 13.3319 7.84097 13.9998 10 13.9998C12.159 13.9998 14.268 13.3319 16.0518 12.0832C17.8356 10.8344 19.2115 9.06286 20 6.99946C19.2102 4.93699 17.834 3.16635 16.0505 1.91796C14.2669 0.669576 12.1586 0.00126305 10 0ZM10 11.6712C9.10103 11.6712 8.22225 11.3975 7.47479 10.8848C6.72732 10.372 6.14474 9.64324 5.80072 8.79058C5.4567 7.93792 5.36669 6.99969 5.54207 6.09451C5.71745 5.18934 6.15035 4.35788 6.78601 3.70529C7.42168 3.05269 8.23157 2.60827 9.11326 2.42822C9.99496 2.24817 10.9089 2.34058 11.7394 2.69376C12.5699 3.04694 13.2798 3.64503 13.7792 4.4124C14.2787 5.17977 14.5453 6.08195 14.5453 7.00486C14.5447 8.24227 14.0657 9.42883 13.2134 10.3038C12.3611 11.1788 11.2053 11.6706 10 11.6712ZM10 4.20486C9.46058 4.20486 8.93327 4.36908 8.48476 4.67675C8.03624 4.98442 7.68667 5.42172 7.48024 5.93335C7.27381 6.44498 7.2198 7.00797 7.32504 7.55112C7.43027 8.09426 7.69003 8.59317 8.07146 8.98476C8.45289 9.37635 8.93886 9.64302 9.46792 9.75106C9.99697 9.8591 10.5454 9.80365 11.0437 9.59173C11.5421 9.3798 11.968 9.02092 12.2677 8.56046C12.5674 8.1 12.7274 7.55865 12.7274 7.00486C12.7286 6.63655 12.659 6.27161 12.5224 5.93102C12.3859 5.59042 12.1851 5.28089 11.9316 5.0202C11.6782 4.75951 11.3771 4.5528 11.0456 4.41195C10.7141 4.2711 10.3588 4.19889 10 4.19946V4.20486Z" fill="#EAD8D3"/>
</g>
<defs>
<clipPath id="clip0_9_154">
<rect width="20" height="14" fill="white"/>
</clipPath>
</defs>
</svg>
