<svg width="24" height="24" viewBox="0 0 24 24" fill="none" xmlns="http://www.w3.org/2000/svg">
<path fill-rule="evenodd" clip-rule="evenodd" d="M16.1942 12.8792H12.8792V16.1895C12.8792 16.6748 12.4853 17.0687 12 17.0687C11.5147 17.0687 11.1208 16.6748 11.1208 16.1895V12.8792H7.8058C7.3205 12.8792 6.92664 12.4853 6.92664 12C6.92664 11.5147 7.3205 11.1208 7.8058 11.1208H11.1208V7.81049C11.1208 7.32519 11.5147 6.93133 12 6.93133C12.4853 6.93133 12.8792 7.32519 12.8792 7.81049V11.1208H16.1942C16.6795 11.1208 17.0734 11.5147 17.0734 12C17.0734 12.4853 16.6795 12.8792 16.1942 12.8792ZM12 0C3.1392 0 0 3.1392 0 12C0 20.8608 3.1392 24 12 24C20.8596 24 24 20.8608 24 12C24 3.1392 20.8596 0 12 0Z" fill="#90B2CD"/>
</svg>
