<svg width="40" height="41" viewBox="0 0 40 41" fill="none" xmlns="http://www.w3.org/2000/svg">
<rect width="40" height="41" rx="20" fill="#D2DBE5"/>
<path d="M22 11H18C14.2288 11 12.3431 11 11.1716 12.1716C10 13.3431 10 15.2288 10 19V19.5C10 23.2712 10 25.1569 11.1716 26.3284C11.8248 26.9816 12.7987 27.3721 14.0988 27.5C13.8657 28.4342 13.7338 29.4317 14.3157 29.8651C14.806 30.2218 15.5873 29.8408 17.1499 29.0789C18.2465 28.5441 19.3562 27.9309 20.5546 27.655C20.9931 27.5551 21.4395 27.5125 22 27.5C25.7712 27.5 27.6569 27.5 28.8284 26.3284C30 25.1569 30 23.2712 30 19.5V19C30 15.2288 30 13.3431 28.8284 12.1716C27.6569 11 25.7712 11 22 11Z" fill="url(#paint0_linear_491_370)"/>
<path d="M14.0988 27.5C12.7987 27.3721 11.8248 26.9816 11.1716 26.3284C10 25.1569 10 23.2712 10 19.5V19C10 15.2288 10 13.3431 11.1716 12.1716C12.3431 11 14.2288 11 18 11H22C25.7712 11 27.6569 11 28.8284 12.1716C30 13.3431 30 15.2288 30 19V19.5C30 23.2712 30 25.1569 28.8284 26.3284C27.6569 27.5 25.7712 27.5 22 27.5C21.4395 27.5125 20.9931 27.5551 20.5546 27.655C19.3562 27.9309 18.2465 28.5441 17.1499 29.0789C15.5873 29.8408 14.806 30.2218 14.3157 29.8651C13.3777 29.1665 14.2945 27.0019 14.5 26" stroke="#101010" stroke-width="1.5" stroke-linecap="round"/>
<path d="M16 22H24M16 17H20" stroke="#101010" stroke-width="1.5" stroke-linecap="round" stroke-linejoin="round"/>
<defs>
<linearGradient id="paint0_linear_491_370" x1="24.2105" y1="15.275" x2="13.9487" y2="28.196" gradientUnits="userSpaceOnUse">
<stop stop-color="white" stop-opacity="0"/>
<stop offset="1" stop-color="white"/>
</linearGradient>
</defs>
</svg>
