<svg width="38" height="38" viewBox="0 0 38 38" fill="none" xmlns="http://www.w3.org/2000/svg">
<path d="M0 19C0 8.50659 8.50659 0 19 0C29.4934 0 38 8.50659 38 19C38 29.4934 29.4934 38 19 38C8.50659 38 0 29.4934 0 19Z" fill="#F2F6FA"/>
<path d="M19.2237 10H19.9192C22.8543 10 24.3218 10 25.341 10.7181C25.633 10.9238 25.8922 11.1678 26.1108 11.4426C26.8737 12.4018 26.8737 13.783 26.8737 16.5455V18.8364C26.8737 21.5032 26.8737 22.8366 26.4517 23.9016C25.7732 25.6137 24.3383 26.9642 22.5192 27.6028C21.3877 28 19.9709 28 17.1374 28C15.5182 28 14.7086 28 14.062 27.773C13.0225 27.4081 12.2026 26.6364 11.8149 25.6581C11.5737 25.0495 11.5737 24.2876 11.5737 22.7636V18.55" stroke="#4980BC" stroke-width="1.5" stroke-linecap="round" stroke-linejoin="round"/>
<path d="M26.875 19C26.875 20.6569 25.5319 22 23.875 22C23.2758 22 22.5694 21.895 21.9868 22.0511C21.4691 22.1898 21.0648 22.5941 20.9261 23.1118C20.77 23.6944 20.875 24.4008 20.875 25C20.875 26.6569 19.5319 28 17.875 28" stroke="#4980BC" stroke-width="1.5" stroke-linecap="round" stroke-linejoin="round"/>
<path d="M15.3601 16.6973C16.0384 17.3676 17.138 17.3676 17.8163 16.6973C18.4946 16.027 18.4946 14.9402 17.8163 14.2699L16.2812 12.7527C15.6817 12.1602 14.7529 12.0915 14.0769 12.5464M14.0899 10.5027C13.4116 9.83242 12.312 9.83242 11.6337 10.5027C10.9554 11.173 10.9554 12.2598 11.6337 12.9301L13.1688 14.4473C13.7794 15.0507 14.7315 15.1109 15.4102 14.6279" stroke="#4980BC" stroke-width="1.5" stroke-linecap="round"/>
</svg>
