<svg width="18" height="18" viewBox="0 0 18 18" fill="none" xmlns="http://www.w3.org/2000/svg">
<g clip-path="url(#clip0_9_145)">
<path fill-rule="evenodd" clip-rule="evenodd" d="M3.45167e-06 9C3.45167e-06 7.21997 0.527844 5.47991 1.51678 3.99987C2.50571 2.51983 3.91132 1.36628 5.55585 0.685088C7.20038 0.00389953 9.00998 -0.17433 10.7558 0.172936C12.5016 0.520203 14.1053 1.37737 15.364 2.63604C16.6226 3.89471 17.4798 5.49836 17.8271 7.24419C18.1743 8.99002 17.9961 10.7996 17.3149 12.4441C16.6337 14.0887 15.4802 15.4943 14.0001 16.4832C12.5201 17.4722 10.78 18 9 18C7.81781 18.001 6.64702 17.7689 5.55463 17.317C4.46223 16.8651 3.46966 16.2022 2.63373 15.3663C1.7978 14.5303 1.1349 13.5378 0.682978 12.4454C0.231053 11.353 -0.00103232 10.1822 3.45167e-06 9ZM9 7.731L11.331 5.4L12.6 6.669L10.269 9L12.6 11.331L11.331 12.6L9 10.269L6.669 12.6L5.4 11.331L7.731 9L5.4 6.669L6.669 5.4L9 7.731Z" fill="#EAD8D3"/>
</g>
<defs>
<clipPath id="clip0_9_145">
<rect width="18" height="18" fill="white"/>
</clipPath>
</defs>
</svg>
