<svg width="40" height="40" viewBox="0 0 40 40" fill="none" xmlns="http://www.w3.org/2000/svg">
<path d="M17 8.5H22C27.2 7.96666 30.8333 15.2778 32 19V21L31 25L27.5 29L22 31L17 30.5L15.5 31.5L12 32L11.5 31.5V29L10.5 26.5L8 20L9 15L12.5 10.5L17 8.5Z" fill="white"/>
<path d="M32 19.4801C32 25.8198 26.6267 30.9601 20 30.9601C19.2208 30.9611 18.4439 30.8891 17.6785 30.7453C17.1276 30.6419 16.8521 30.5902 16.6598 30.6195C16.4675 30.6489 16.195 30.7938 15.65 31.0837C14.1082 31.9036 12.3103 32.1932 10.5813 31.8716C11.2385 31.0633 11.6873 30.0934 11.8853 29.0537C12.0053 28.4178 11.708 27.8 11.2627 27.3477C9.24 25.2938 8 22.5261 8 19.4801C8 13.1403 13.3733 8 20 8C20.8219 8 21.6245 8.07907 22.4 8.2297" stroke="#101010" stroke-width="1.5" stroke-linecap="round" stroke-linejoin="round"/>
<path d="M27.5942 8.96465C27.9943 8.56463 28.1943 8.36462 28.4023 8.2445C28.967 7.9185 29.6626 7.9185 30.2273 8.2445C30.4353 8.36462 30.6354 8.56463 31.0354 8.96465C31.4354 9.36467 31.6354 9.56468 31.7555 9.77275C32.0815 10.3374 32.0815 11.0331 31.7555 11.5977C31.6354 11.8058 31.4354 12.0058 31.0354 12.4058L27.066 16.3752C26.2729 17.1682 25.0761 17.2005 24.0173 17.4269C23.1894 17.6039 22.7754 17.6924 22.5415 17.4585C22.3076 17.2246 22.3961 16.8107 22.5732 15.9827C22.7996 14.9239 22.8318 13.7271 23.6248 12.9341L27.5942 8.96465Z" fill="#D5E9FD"/>
<path d="M24.0173 17.4269L23.8605 16.6934H23.8605L24.0173 17.4269ZM22.5732 15.9827L23.3066 16.1396L22.5732 15.9827ZM23.6248 12.9341L23.0945 12.4037H23.0945L23.6248 12.9341ZM27.066 16.3752L27.5963 16.9055V16.9055L27.066 16.3752ZM31.7555 9.77275L32.405 9.39775V9.39775L31.7555 9.77275ZM31.0354 12.4058L30.505 11.8755V11.8755L31.0354 12.4058ZM31.7555 11.5977L32.405 11.9727V11.9727L31.7555 11.5977ZM30.2273 8.2445L30.6023 7.59498V7.59498L30.2273 8.2445ZM27.5942 8.96465L28.1246 9.49498V9.49498L27.5942 8.96465ZM28.4023 8.2445L28.0273 7.59498V7.59498L28.4023 8.2445ZM31.0354 12.4058L30.505 11.8755L26.5356 15.8449L27.066 16.3752L27.5963 16.9055L31.5657 12.9361L31.0354 12.4058ZM23.6248 12.9341L24.1552 13.4644L28.1246 9.49498L27.5942 8.96465L27.0639 8.43432L23.0945 12.4037L23.6248 12.9341ZM24.0173 17.4269L23.8605 16.6934C23.4222 16.7872 23.1766 16.8376 23.009 16.8483C22.8549 16.8581 22.9624 16.8188 23.0718 16.9282L22.5415 17.4585L22.0112 17.9889C22.3544 18.3321 22.7859 18.3655 23.1042 18.3453C23.4091 18.3259 23.7845 18.2436 24.1741 18.1603L24.0173 17.4269ZM22.5732 15.9827L21.8397 15.8259C21.7564 16.2155 21.6741 16.5909 21.6547 16.8958C21.6345 17.2141 21.6679 17.6456 22.0112 17.9889L22.5415 17.4585L23.0718 16.9282C23.1812 17.0376 23.1419 17.1451 23.1517 16.991C23.1624 16.8234 23.2129 16.5779 23.3066 16.1396L22.5732 15.9827ZM31.0354 8.96465L30.505 9.49498C30.9392 9.92915 31.0477 10.0467 31.106 10.1478L31.7555 9.77275L32.405 9.39775C32.2231 9.08262 31.9316 8.8002 31.5657 8.43432L31.0354 8.96465ZM31.0354 12.4058L31.5657 12.9361C31.9316 12.5702 32.2231 12.2878 32.405 11.9727L31.7555 11.5977L31.106 11.2227C31.0477 11.3237 30.9392 11.4413 30.505 11.8755L31.0354 12.4058ZM31.7555 9.77275L31.106 10.1478C31.298 10.4803 31.298 10.8901 31.106 11.2227L31.7555 11.5977L32.405 11.9727C32.865 11.176 32.865 10.1944 32.405 9.39775L31.7555 9.77275ZM31.0354 8.96465L31.5657 8.43432C31.1998 8.06845 30.9174 7.77692 30.6023 7.59498L30.2273 8.2445L29.8523 8.89401C29.9533 8.95233 30.0709 9.06082 30.505 9.49498L31.0354 8.96465ZM27.5942 8.96465L28.1246 9.49498C28.5587 9.06082 28.6763 8.95233 28.7773 8.89401L28.4023 8.2445L28.0273 7.59498C27.7122 7.77692 27.4298 8.06845 27.0639 8.43432L27.5942 8.96465ZM30.2273 8.2445L30.6023 7.59498C29.8056 7.13501 28.824 7.13501 28.0273 7.59498L28.4023 8.2445L28.7773 8.89401C29.1099 8.702 29.5197 8.702 29.8523 8.89401L30.2273 8.2445ZM27.066 16.3752L26.5356 15.8449C26.274 16.1065 25.9239 16.2673 25.4558 16.3868C25.2213 16.4467 24.9728 16.4925 24.7011 16.5395C24.4383 16.5849 24.1439 16.6328 23.8605 16.6934L24.0173 17.4269L24.1741 18.1603C24.42 18.1077 24.6724 18.0667 24.9565 18.0176C25.2318 17.97 25.5306 17.9158 25.8268 17.8402C26.4201 17.6887 27.0649 17.4369 27.5963 16.9055L27.066 16.3752ZM22.5732 15.9827L23.3066 16.1396C23.3672 15.8561 23.4151 15.5618 23.4605 15.2989C23.5075 15.0272 23.5534 14.7787 23.6132 14.5443C23.7327 14.0761 23.8935 13.726 24.1552 13.4644L23.6248 12.9341L23.0945 12.4037C22.5631 12.9351 22.3113 13.58 22.1598 14.1732C22.0842 14.4695 22.03 14.7683 21.9824 15.0435C21.9333 15.3277 21.8923 15.58 21.8397 15.8259L22.5732 15.9827Z" fill="#101010"/>
<path d="M19.9946 20H20.0053M15.2 20H15.2107" stroke="#101010" stroke-width="2" stroke-linecap="round" stroke-linejoin="round"/>
</svg>
