<svg width="10" height="13" viewBox="0 0 10 13" fill="none" xmlns="http://www.w3.org/2000/svg">
<g clip-path="url(#clip0_9_150)">
<path fill-rule="evenodd" clip-rule="evenodd" d="M2.77778 5.90912H7.22222V4.13639C7.22676 3.82531 7.17133 3.51654 7.05935 3.22913C6.94736 2.94172 6.7812 2.68177 6.57111 2.4653C6.36759 2.24184 6.12319 2.0651 5.85297 1.94599C5.58276 1.82688 5.29246 1.76792 5 1.77275C4.70753 1.76792 4.41724 1.82688 4.14702 1.94599C3.87681 2.0651 3.6324 2.24184 3.42889 2.4653C3.2188 2.68177 3.05263 2.94172 2.94065 3.22913C2.82867 3.51654 2.77323 3.82531 2.77778 4.13639V5.90912ZM10 6.79548V12.1137C10.0019 12.2304 9.98129 12.3463 9.93944 12.4542C9.89758 12.5622 9.83538 12.6598 9.75667 12.7412C9.68016 12.8249 9.58834 12.8911 9.48687 12.9356C9.38539 12.9801 9.27641 13.002 9.16667 13H0.833332C0.723581 13.002 0.614606 12.9801 0.51313 12.9356C0.411655 12.8911 0.319833 12.8249 0.243332 12.7412C0.164615 12.6598 0.102412 12.5622 0.0605604 12.4542C0.0187091 12.3463 -0.00190231 12.2304 -1.61757e-06 12.1137V6.79548C-0.00190231 6.67875 0.0187091 6.56284 0.0605604 6.4549C0.102412 6.34697 0.164615 6.24931 0.243332 6.16794C0.319833 6.08421 0.411655 6.01805 0.51313 5.97353C0.614606 5.92902 0.723581 5.9071 0.833332 5.90912H1.11111V4.13639C1.10451 3.59258 1.20275 3.0531 1.39978 2.55125C1.59681 2.04939 1.88843 1.59581 2.25666 1.21848C2.61142 0.826816 3.03786 0.51663 3.50969 0.307066C3.98152 0.0975023 4.48873 -0.00699387 5 2.64932e-05C5.51127 -0.00699387 6.01847 0.0975023 6.4903 0.307066C6.96213 0.51663 7.38858 0.826816 7.74333 1.21848C8.11156 1.59581 8.40319 2.04939 8.60022 2.55125C8.79724 3.0531 8.89549 3.59258 8.88889 4.13639V5.90912H9.16667C9.27641 5.9071 9.38539 5.92902 9.48687 5.97353C9.58834 6.01805 9.68016 6.08421 9.75667 6.16794C9.83538 6.24931 9.89758 6.34697 9.93944 6.4549C9.98129 6.56284 10.0019 6.67875 10 6.79548Z" fill="#EAD8D3"/>
</g>
<defs>
<clipPath id="clip0_9_150">
<rect width="10" height="13" fill="white"/>
</clipPath>
</defs>
</svg>
