<svg width="23" height="24" viewBox="0 0 23 24" fill="none" xmlns="http://www.w3.org/2000/svg">
<path d="M6.25 18.35C7.25852 17.2753 8.69529 16.7127 10.1347 16.7003M12.3 11.75C12.3 12.9651 11.3306 13.95 10.1347 13.95C8.93883 13.95 7.96938 12.9651 7.96938 11.75C7.96938 10.535 8.93883 9.55005 10.1347 9.55005C11.3306 9.55005 12.3 10.535 12.3 11.75Z" stroke="#101010" stroke-width="1.5" stroke-linecap="round"/>
<path d="M7.35001 2.95135C4.44117 2.96219 2.88511 3.06391 1.87764 4.01835C0.75 5.08664 0.75 6.80603 0.75 10.2448V15.4553C0.75 18.8941 0.75 20.6135 1.87764 21.6818C3.00528 22.7501 4.82019 22.7501 8.45001 22.7501H10.65M12.85 2.95135C15.7589 2.96219 17.3149 3.06391 18.3224 4.01835C19.45 5.08664 19.45 6.80603 19.45 10.2448V11.2001" stroke="#101010" stroke-width="1.5" stroke-linecap="round" stroke-linejoin="round"/>
<path d="M7.64935 2.54486C7.75489 2.08857 7.80766 1.86042 7.90901 1.6741C8.14512 1.24006 8.58065 0.921089 9.10057 0.801427C9.32376 0.750061 9.5825 0.750061 10.1 0.750061C10.6175 0.750061 10.8762 0.750061 11.0994 0.801427C11.6193 0.921089 12.0548 1.24006 12.2909 1.6741C12.3923 1.86042 12.4451 2.08857 12.5506 2.54486L12.6422 2.94099C12.8294 3.75024 12.923 4.15487 12.7818 4.46612C12.6904 4.66772 12.5345 4.84033 12.3341 4.96208C12.0246 5.15006 11.5657 5.15006 10.6479 5.15006H9.55206C8.63429 5.15006 8.1754 5.15006 7.86589 4.96208C7.66542 4.84033 7.50959 4.66772 7.41814 4.46612C7.27694 4.15487 7.37054 3.75024 7.55772 2.94099L7.64935 2.54486Z" stroke="#101010" stroke-width="1.5"/>
<path d="M21.65 18.3501C21.65 20.7801 19.68 22.7501 17.25 22.7501C14.8199 22.7501 12.85 20.7801 12.85 18.3501C12.85 15.92 14.8199 13.9501 17.25 13.9501C19.68 13.9501 21.65 15.92 21.65 18.3501Z" fill="#D5E9FD"/>
<path d="M16.1062 18.162C15.7324 17.9837 15.2847 18.1422 15.1064 18.516C14.928 18.8899 15.0865 19.3375 15.4604 19.5159L15.7833 18.839L16.1062 18.162ZM16.7611 19.8167L16.1149 20.1975C16.2556 20.4362 16.5164 20.5779 16.7932 20.5661C17.0701 20.5542 17.3178 20.3906 17.4375 20.1407L16.7611 19.8167ZM19.0722 18.0327C19.4369 17.8363 19.5734 17.3815 19.377 17.0168C19.1807 16.6521 18.7259 16.5156 18.3611 16.7119L18.7167 17.3723L19.0722 18.0327ZM21.65 18.3501H20.9C20.9 20.3659 19.2658 22.0001 17.25 22.0001V22.7501V23.5001C20.0943 23.5001 22.4 21.1943 22.4 18.3501H21.65ZM17.25 22.7501V22.0001C15.2341 22.0001 13.6 20.3659 13.6 18.3501H12.85H12.1C12.1 21.1943 14.4057 23.5001 17.25 23.5001V22.7501ZM12.85 18.3501H13.6C13.6 16.3342 15.2341 14.7001 17.25 14.7001V13.9501V13.2001C14.4057 13.2001 12.1 15.5058 12.1 18.3501H12.85ZM17.25 13.9501V14.7001C19.2658 14.7001 20.9 16.3342 20.9 18.3501H21.65H22.4C22.4 15.5058 20.0943 13.2001 17.25 13.2001V13.9501ZM15.7833 18.839C15.4604 19.5159 15.4601 19.5158 15.4599 19.5156C15.4598 19.5156 15.4596 19.5155 15.4594 19.5154C15.4591 19.5153 15.4588 19.5151 15.4585 19.515C15.4579 19.5147 15.4574 19.5144 15.4568 19.5142C15.4558 19.5137 15.4548 19.5132 15.454 19.5128C15.4524 19.512 15.4513 19.5114 15.4506 19.5111C15.4493 19.5105 15.4499 19.5107 15.4522 19.512C15.4569 19.5145 15.4683 19.5208 15.4854 19.5312C15.5196 19.5522 15.5753 19.5891 15.6431 19.644C15.7789 19.754 15.9589 19.9327 16.1149 20.1975L16.7611 19.8167L17.4073 19.436C17.1442 18.9896 16.8354 18.6794 16.5871 18.4783C16.4628 18.3776 16.3526 18.3034 16.269 18.2522C16.2271 18.2265 16.1916 18.2065 16.164 18.1916C16.1503 18.1842 16.1384 18.1781 16.1287 18.1731C16.1239 18.1707 16.1196 18.1685 16.1158 18.1667C16.114 18.1658 16.1122 18.1649 16.1106 18.1641C16.1098 18.1638 16.1091 18.1634 16.1083 18.163C16.108 18.1629 16.1076 18.1627 16.1073 18.1625C16.1071 18.1624 16.1068 18.1623 16.1067 18.1623C16.1065 18.1622 16.1062 18.162 15.7833 18.839ZM16.7611 19.8167C17.4375 20.1407 17.4375 20.1408 17.4374 20.1409C17.4374 20.1409 17.4374 20.141 17.4373 20.1411C17.4373 20.1412 17.4373 20.1412 17.4372 20.1413C17.4372 20.1414 17.4372 20.1413 17.4373 20.1412C17.4374 20.1409 17.4378 20.1402 17.4383 20.139C17.4395 20.1367 17.4414 20.1327 17.4442 20.1271C17.4497 20.1158 17.4585 20.0981 17.4704 20.0748C17.4941 20.0282 17.5299 19.9592 17.5764 19.8739C17.6698 19.7026 17.8043 19.4694 17.9681 19.2214C18.3182 18.6914 18.7207 18.2219 19.0722 18.0327L18.7167 17.3723L18.3611 16.7119C17.6552 17.0919 17.0799 17.8446 16.7166 18.3946C16.5237 18.6865 16.3675 18.9577 16.2595 19.1558C16.2053 19.2552 16.1627 19.3371 16.1331 19.3953C16.1184 19.4243 16.1068 19.4475 16.0987 19.464C16.0946 19.4723 16.0914 19.4789 16.0891 19.4837C16.0879 19.4861 16.0869 19.4881 16.0862 19.4896C16.0858 19.4903 16.0855 19.491 16.0853 19.4915C16.0851 19.4918 16.085 19.492 16.0849 19.4922C16.0849 19.4923 16.0848 19.4925 16.0848 19.4925C16.0847 19.4926 16.0847 19.4928 16.7611 19.8167Z" fill="#101010"/>
</svg>
