<svg width="42" height="42" viewBox="0 0 42 42" fill="none" xmlns="http://www.w3.org/2000/svg">
<rect width="42" height="42" rx="21" fill="#8F9191"/>
<path d="M16.05 27.6C17.0585 26.5253 18.4953 25.9627 19.9347 25.9502M22.1 21C22.1 22.215 21.1306 23.2 19.9347 23.2C18.7388 23.2 17.7694 22.215 17.7694 21C17.7694 19.785 18.7388 18.8 19.9347 18.8C21.1306 18.8 22.1 19.785 22.1 21Z" stroke="white" stroke-width="1.5" stroke-linecap="round"/>
<path d="M17.15 12.2013C14.2412 12.2121 12.6851 12.3138 11.6776 13.2683C10.55 14.3366 10.55 16.056 10.55 19.4947V24.7053C10.55 28.144 10.55 29.8634 11.6776 30.9317C12.8053 32 14.6202 32 18.25 32H20.45M22.65 12.2013C25.5589 12.2121 27.1149 12.3138 28.1224 13.2683C29.25 14.3366 29.25 16.056 29.25 19.4947V20.45" stroke="white" stroke-width="1.5" stroke-linecap="round" stroke-linejoin="round"/>
<path d="M17.4494 11.7948C17.5549 11.3385 17.6077 11.1104 17.7091 10.924C17.9452 10.49 18.3807 10.171 18.9006 10.0514C19.1238 10 19.3825 10 19.9 10C20.4175 10 20.6763 10 20.8994 10.0514C21.4194 10.171 21.8549 10.49 22.091 10.924C22.1923 11.1104 22.2451 11.3385 22.3507 11.7948L22.4423 12.1909C22.6295 13.0002 22.7231 13.4048 22.5819 13.7161C22.4904 13.9177 22.3346 14.0903 22.1341 14.212C21.8246 14.4 21.3657 14.4 20.4479 14.4H19.3521C18.4343 14.4 17.9754 14.4 17.6659 14.212C17.4655 14.0903 17.3096 13.9177 17.2182 13.7161C17.077 13.4048 17.1706 13.0002 17.3578 12.1909L17.4494 11.7948Z" stroke="white" stroke-width="1.5"/>
<path d="M25.9063 27.412C25.5324 27.2336 25.0848 27.3921 24.9064 27.7659C24.7281 28.1398 24.8866 28.5874 25.2604 28.7658L25.5834 28.0889L25.9063 27.412ZM26.5611 29.0666L25.915 29.4474C26.0556 29.6861 26.3165 29.8278 26.5933 29.816C26.8701 29.8041 27.1179 29.6405 27.2376 29.3906L26.5611 29.0666ZM28.8722 27.2826C29.2369 27.0863 29.3734 26.6314 29.1771 26.2667C28.9808 25.902 28.5259 25.7655 28.1612 25.9618L28.5167 26.6222L28.8722 27.2826ZM31.45 27.6H30.7C30.7 29.6158 29.0659 31.25 27.05 31.25V32V32.75C29.8943 32.75 32.2 30.4442 32.2 27.6H31.45ZM27.05 32V31.25C25.0342 31.25 23.4 29.6158 23.4 27.6H22.65H21.9C21.9 30.4442 24.2058 32.75 27.05 32.75V32ZM22.65 27.6H23.4C23.4 25.5841 25.0342 23.95 27.05 23.95V23.2V22.45C24.2058 22.45 21.9 24.7557 21.9 27.6H22.65ZM27.05 23.2V23.95C29.0659 23.95 30.7 25.5841 30.7 27.6H31.45H32.2C32.2 24.7557 29.8943 22.45 27.05 22.45V23.2ZM25.5834 28.0889C25.2604 28.7658 25.2602 28.7657 25.2599 28.7656C25.2599 28.7655 25.2596 28.7654 25.2595 28.7653C25.2592 28.7652 25.2589 28.765 25.2586 28.7649C25.258 28.7646 25.2574 28.7643 25.2569 28.7641C25.2558 28.7636 25.2549 28.7631 25.2541 28.7627C25.2525 28.7619 25.2513 28.7614 25.2507 28.761C25.2494 28.7604 25.25 28.7606 25.2523 28.7619C25.2569 28.7644 25.2684 28.7707 25.2854 28.7812C25.3196 28.8021 25.3753 28.839 25.4431 28.8939C25.5789 29.0039 25.759 29.1826 25.915 29.4474L26.5611 29.0666L27.2073 28.6859C26.9443 28.2395 26.6354 27.9293 26.3871 27.7282C26.2628 27.6276 26.1527 27.5534 26.069 27.5021C26.0271 27.4764 25.9916 27.4564 25.9641 27.4415C25.9503 27.4341 25.9385 27.428 25.9288 27.4231C25.924 27.4206 25.9196 27.4184 25.9159 27.4166C25.914 27.4157 25.9123 27.4148 25.9107 27.4141C25.9099 27.4137 25.9091 27.4133 25.9084 27.4129C25.908 27.4128 25.9077 27.4126 25.9073 27.4124C25.9071 27.4124 25.9069 27.4122 25.9068 27.4122C25.9065 27.4121 25.9063 27.412 25.5834 28.0889ZM26.5611 29.0666C27.2376 29.3906 27.2375 29.3907 27.2375 29.3908C27.2375 29.3908 27.2374 29.3909 27.2374 29.391C27.2373 29.3911 27.2373 29.3911 27.2373 29.3912C27.2373 29.3913 27.2373 29.3912 27.2373 29.3911C27.2375 29.3908 27.2378 29.3901 27.2384 29.3889C27.2395 29.3866 27.2415 29.3826 27.2442 29.377C27.2498 29.3657 27.2586 29.3481 27.2704 29.3248C27.2941 29.2781 27.3299 29.2091 27.3765 29.1238C27.4699 28.9525 27.6043 28.7193 27.7682 28.4713C28.1183 27.9413 28.5207 27.4718 28.8722 27.2826L28.5167 26.6222L28.1612 25.9618C27.4553 26.3418 26.8799 27.0945 26.5166 27.6445C26.3238 27.9364 26.1676 28.2076 26.0595 28.4057C26.0053 28.5051 25.9627 28.587 25.9332 28.6452C25.9184 28.6743 25.9069 28.6974 25.8987 28.7139C25.8947 28.7222 25.8914 28.7288 25.8891 28.7336C25.8879 28.736 25.887 28.738 25.8863 28.7395C25.8859 28.7403 25.8856 28.7409 25.8853 28.7414C25.8852 28.7417 25.8851 28.7419 25.885 28.7421C25.8849 28.7422 25.8849 28.7424 25.8848 28.7424C25.8848 28.7426 25.8847 28.7427 26.5611 29.0666Z" fill="white"/>
</svg>
