<svg width="28" height="28" viewBox="0 0 28 28" fill="none" xmlns="http://www.w3.org/2000/svg">
<path d="M0 14C0 6.26801 6.26801 0 14 0C21.732 0 28 6.26801 28 14C28 21.732 21.732 28 14 28C6.26801 28 0 21.732 0 14Z" fill="white"/>
<path d="M23.0001 8.86973C22.9629 9.0458 22.9326 9.22369 22.8872 9.39765C22.7336 9.98714 22.4531 10.5114 22.0235 10.9432C20.4868 12.4879 18.9566 14.0394 17.3987 15.5624C16.0485 16.8823 13.888 16.8608 12.5406 15.5531C12.2269 15.2487 12.2 14.8328 12.4748 14.5349C12.7492 14.2374 13.1829 14.2379 13.5079 14.536C14.3903 15.3455 15.6404 15.3356 16.4807 14.4996C17.9796 13.0082 19.4759 11.5142 20.9652 10.0132C21.5444 9.42943 21.7342 8.71741 21.5042 7.92852C21.2765 7.14743 20.7434 6.64574 19.9466 6.46622C19.1796 6.29347 18.512 6.51033 17.9561 7.06564C16.8208 8.19989 15.6858 9.33455 14.5524 10.4707C14.3935 10.63 14.2192 10.7448 13.984 10.7413C13.7073 10.7371 13.4977 10.6158 13.3683 10.3746C13.2355 10.127 13.2534 9.87838 13.4079 9.64309C13.4397 9.59464 13.4811 9.55166 13.5223 9.51041C14.6858 8.34628 15.8431 7.17588 17.0156 6.02089C18.3359 4.72034 20.3839 4.65484 21.7842 5.86182C22.4536 6.43873 22.8454 7.17441 22.9668 8.05168C22.9723 8.09159 22.9668 8.13473 23 8.16664C23.0001 8.40104 23.0001 8.63537 23.0001 8.86973Z" fill="#4980BC"/>
<path d="M8.16599 23.0007C7.8902 22.9302 7.60706 22.893 7.33695 22.7952C4.93458 21.9261 4.21165 18.8934 5.98527 17.0554C6.98157 16.0229 8.01046 15.0219 9.02504 14.0071C9.53855 13.4935 10.0452 12.9727 10.5684 12.4691C11.9258 11.1626 14.1095 11.1786 15.4419 12.4966C15.6821 12.7341 15.7453 13.0308 15.6162 13.3144C15.4906 13.5901 15.2133 13.749 14.9026 13.721C14.7388 13.7063 14.6028 13.6328 14.4823 13.5227C13.5483 12.6698 12.3267 12.6954 11.4338 13.5875C9.96705 15.0531 8.49809 16.5165 7.03667 17.9873C6.1072 18.9227 6.22481 20.4224 7.27605 21.1883C8.12095 21.8038 9.26197 21.7139 10.02 20.9607C11.1584 19.8295 12.2912 18.6927 13.4248 17.5566C13.5751 17.4061 13.7409 17.2973 13.9613 17.2952C14.2517 17.2924 14.4731 17.4152 14.6046 17.6736C14.7352 17.9304 14.7111 18.184 14.5403 18.4177C14.4923 18.4833 14.4319 18.5404 14.374 18.5984C13.281 19.6922 12.1842 20.7821 11.0954 21.8802C10.4932 22.4875 9.78525 22.8721 8.93037 22.9728C8.90911 22.9753 8.88942 22.9912 8.869 23.0008C8.63468 23.0007 8.40031 23.0007 8.16599 23.0007Z" fill="#4980BC"/>
<path d="M20.3489 17.6912C20.2353 17.692 20.1296 17.6585 20.0283 17.6116C19.6256 17.4249 19.2225 17.2392 18.8215 17.0489C18.4322 16.864 18.2749 16.465 18.4425 16.1011C18.61 15.7377 19.0168 15.5947 19.4069 15.7715C19.827 15.9619 20.2457 16.1559 20.6601 16.3584C20.9741 16.5119 21.1156 16.8338 21.0331 17.165C20.9569 17.4713 20.6677 17.6937 20.3489 17.6912Z" fill="#4980BC"/>
<path d="M15.6563 19.1594C15.6534 18.809 15.8693 18.5206 16.1657 18.4378C16.4702 18.3528 16.8098 18.468 16.9532 18.749C17.1892 19.2116 17.4113 19.6825 17.6129 20.161C17.7508 20.4882 17.5785 20.864 17.2614 21.0187C16.9434 21.1739 16.5356 21.0802 16.3707 20.7664C16.1238 20.2967 15.9138 19.8075 15.6926 19.3246C15.6642 19.2627 15.6623 19.1887 15.6563 19.1594Z" fill="#4980BC"/>
<path d="M9.59043 11.6448C9.58769 12.1334 9.1001 12.4825 8.64602 12.2951C8.18229 12.1036 7.72834 11.8861 7.28023 11.6599C6.93836 11.4874 6.81916 11.0776 6.9839 10.7402C7.14457 10.411 7.53354 10.2508 7.87511 10.3991C8.33025 10.5967 8.78012 10.8076 9.22431 11.0288C9.46849 11.1503 9.58373 11.3708 9.59043 11.6448Z" fill="#4980BC"/>
<path d="M12.3116 8.88035C12.3124 9.23077 12.0956 9.5175 11.7987 9.59886C11.4928 9.68271 11.1568 9.56645 11.0127 9.28334C10.7772 8.8205 10.5548 8.34975 10.3539 7.871C10.2166 7.54394 10.3914 7.16878 10.7097 7.01552C11.0286 6.86202 11.4353 6.95824 11.5991 7.2719C11.8447 7.74228 12.055 8.23126 12.2759 8.71435C12.3041 8.77618 12.3055 8.8503 12.3116 8.88035Z" fill="#4980BC"/>
</svg>
