<svg width="24" height="24" viewBox="0 0 24 24" fill="none" xmlns="http://www.w3.org/2000/svg">
<g clip-path="url(#clip0_152_1783)">
<path fill-rule="evenodd" clip-rule="evenodd" d="M24 21.7505C23.998 22.3466 23.7602 22.9178 23.3386 23.3392C22.9169 23.7607 22.3457 23.9982 21.7495 24H2.25048C1.65415 23.9982 1.08276 23.7606 0.661092 23.3389C0.239427 22.9172 0.0017587 22.3458 0 21.7495V2.25143C0.0015075 1.65494 0.239064 1.0833 0.660757 0.661429C1.08245 0.239558 1.65399 0.00175988 2.25048 0H21.7495C22.3458 0.0017587 22.9172 0.239427 23.3389 0.661092C23.7606 1.08276 23.9982 1.65415 24 2.25048V21.7505Z" fill="#DA5937"/>
<path fill-rule="evenodd" clip-rule="evenodd" d="M11.3288 5.03359C11.2753 5.04375 11.0796 5.25052 10.9827 5.65852C10.8138 6.36467 11.0224 7.2139 11.2744 8.02621C11.2919 8.08713 11.3131 8.14805 11.3325 8.20898L11.3879 8.02621C11.6399 7.2139 11.8485 6.36467 11.6805 5.65852C11.5845 5.24959 11.387 5.04375 11.3298 5.03359M11.3962 11.473C10.9406 12.4865 10.447 13.4826 9.91652 14.4591C10.2876 14.3677 10.6836 14.2801 11.135 14.1905L11.4082 14.1351C11.9576 14.0232 12.5084 13.9183 13.0605 13.8204C12.4178 13.1036 11.8591 12.3157 11.3953 11.4721M18.3211 15.7321C18.7171 15.7441 18.9904 15.6167 19.019 15.5585C19.0236 15.505 18.8768 15.2594 18.5094 15.0573C17.8707 14.7047 16.9928 14.6788 16.1501 14.7047L15.9636 14.7121C16.0144 14.7481 16.0651 14.7822 16.1178 14.8164C16.8322 15.2761 17.5947 15.7044 18.3211 15.7302M7.24052 16.7087C7.18421 16.7382 7.12791 16.7659 7.07252 16.7964C6.31929 17.1933 5.57068 17.6474 5.19129 18.2641C4.97344 18.6204 4.96514 18.9056 4.99744 18.9545C5.04544 18.9841 5.33068 18.9757 5.68698 18.7579C6.33037 18.361 6.7356 17.6253 7.12791 16.9117L7.1796 16.8176L7.24052 16.7087ZM5.09068 20.2007C4.70391 20.2007 4.37068 20.0714 4.12329 19.8259C3.61929 19.321 3.62483 18.4533 4.14083 17.617C4.67345 16.7484 5.58821 16.1844 6.4956 15.7044C7.01806 15.4274 7.5996 15.1773 8.22545 14.9567L8.28729 14.8487C8.44791 14.5662 8.6076 14.2837 8.76175 13.9976C9.58329 12.4773 10.1953 11.2034 10.6836 9.99513C10.4608 9.47057 10.2636 8.93548 10.0928 8.39175C9.79098 7.40959 9.5436 6.36652 9.78083 5.37328C10.0088 4.41698 10.6171 3.79944 11.3316 3.79944C12.0451 3.79944 12.6525 4.4179 12.8814 5.37236C13.1196 6.36467 12.8722 7.40867 12.5704 8.39082C12.4037 8.92388 12.2202 9.45152 12.0202 9.97298C12.6848 11.4241 13.5156 12.6093 14.5578 13.5914C15.0741 13.5272 15.5931 13.4865 16.1131 13.4696C17.1414 13.4419 18.2178 13.4853 19.1058 13.9773C19.9651 14.4527 20.3962 15.205 20.2061 15.8917C20.0261 16.5462 19.3144 16.9681 18.3913 16.9681L18.2759 16.9653C17.2568 16.9284 16.3153 16.4105 15.4494 15.8557C15.0017 15.5655 14.5746 15.2447 14.171 14.8957C13.3725 15.0102 12.5833 15.1607 11.6501 15.3462L11.3768 15.4016C10.5091 15.5724 9.75406 15.7634 9.06821 15.9804L8.94914 16.1936C8.71837 16.6007 8.4876 17.0059 8.26052 17.4148L8.2116 17.5081C7.76021 18.3231 7.25344 19.2434 6.33221 19.8102C5.91683 20.0659 5.48852 20.2007 5.09068 20.2007Z" fill="white"/>
</g>
<defs>
<clipPath id="clip0_152_1783">
<rect width="24" height="24" fill="white"/>
</clipPath>
</defs>
</svg>
