<svg width="24" height="24" viewBox="0 0 24 24" fill="none" xmlns="http://www.w3.org/2000/svg">
<g clip-path="url(#clip0_446_85)">
<path fill-rule="evenodd" clip-rule="evenodd" d="M24 21.6C24 22.92 22.92 24 21.6 24H2.4C1.08 24 0 22.92 0 21.6V2.4C0 1.08 1.08 0 2.4 0H21.6C22.92 0 24 1.08 24 2.4V21.6Z" fill="#ED6E5B"/>
<path fill-rule="evenodd" clip-rule="evenodd" d="M19.3167 15.332L17.1062 11.965C17.0408 11.865 16.9515 11.7829 16.8464 11.7261C16.7413 11.6693 16.6237 11.6396 16.5042 11.6396C16.3847 11.6396 16.2671 11.6693 16.162 11.7261C16.0569 11.7829 15.9676 11.865 15.9022 11.965L14.6582 13.86L10.7567 7.915C10.6912 7.81515 10.6019 7.73316 10.4968 7.67642C10.3917 7.61967 10.2741 7.58997 10.1547 7.58997C10.0353 7.58997 9.91771 7.61967 9.81262 7.67642C9.70753 7.73316 9.61821 7.81515 9.55269 7.915L4.68369 15.332C4.36919 15.811 4.71369 16.448 5.28619 16.448H18.7142C19.2872 16.448 19.6312 15.811 19.3167 15.332Z" fill="white"/>
</g>
<defs>
<clipPath id="clip0_446_85">
<rect width="24" height="24" fill="white"/>
</clipPath>
</defs>
</svg>
