<svg width="24" height="27" viewBox="0 0 24 27" fill="none" xmlns="http://www.w3.org/2000/svg">
<g clip-path="url(#clip0_446_89)">
<mask id="mask0_446_89" style="mask-type:luminance" maskUnits="userSpaceOnUse" x="0" y="0" width="20" height="27">
<path d="M0 0.200027H19.2V26.1515H0V0.200027Z" fill="white"/>
</mask>
<g mask="url(#mask0_446_89)">
<path fill-rule="evenodd" clip-rule="evenodd" d="M19.2 24.5515V1.80046C19.2 1.56917 19.1499 1.34063 19.0531 1.13057C18.9563 0.920514 18.8151 0.73393 18.6393 0.583669C18.4635 0.433408 18.2572 0.32304 18.0346 0.260165C17.812 0.19729 17.5785 0.183402 17.35 0.219457L1.35 2.74146C0.973683 2.8013 0.631032 2.99335 0.383595 3.28313C0.136158 3.57291 0.000149643 3.94141 1.95851e-09 4.32246V22.0295C-1.88426e-05 22.4104 0.135953 22.7789 0.383441 23.0686C0.630929 23.3582 0.973679 23.55 1.35 23.6095L17.35 26.132C17.5785 26.168 17.812 26.1541 18.0346 26.0912C18.2572 26.0284 18.4635 25.918 18.6393 25.7677C18.8151 25.6175 18.9563 25.4309 19.0531 25.2208C19.1499 25.0108 19.2 24.7827 19.2 24.5515Z" fill="#E76C4E"/>
</g>
<path fill-rule="evenodd" clip-rule="evenodd" d="M22.9998 23.8425H20.7998V2.50903H22.9998C23.265 2.50903 23.5194 2.61439 23.7069 2.80193C23.8944 2.98946 23.9998 3.24382 23.9998 3.50903V22.8425C23.9998 23.1077 23.8944 23.3621 23.7069 23.5496C23.5194 23.7372 23.265 23.8425 22.9998 23.8425Z" fill="#E76C4E"/>
<path fill-rule="evenodd" clip-rule="evenodd" d="M9.9814 7.18204H6.5949C6.4992 7.18204 6.4074 7.21999 6.33963 7.28756C6.27187 7.35514 6.23366 7.44683 6.2334 7.54254V18.809C6.2334 19.008 6.3959 19.169 6.5949 19.169H7.3719C7.46738 19.169 7.55894 19.1311 7.62646 19.0636C7.69397 18.9961 7.7319 18.9045 7.7319 18.809V14.6745H9.8199C11.7769 14.6745 13.5239 13.2435 13.7089 11.296C13.76 10.7756 13.7017 10.2503 13.5376 9.75379C13.3736 9.25729 13.1074 8.80061 12.7563 8.41313C12.4052 8.02565 11.9769 7.71594 11.4989 7.50392C11.0209 7.2919 10.5043 7.18225 9.9814 7.18204ZM9.9809 13.1755H7.7319V8.68054H9.9809C10.5769 8.68133 11.1482 8.91853 11.5694 9.34008C11.9907 9.76162 12.2275 10.3331 12.2279 10.929C12.2271 11.5247 11.9901 12.0957 11.5689 12.5169C11.1476 12.938 10.5766 13.1749 9.9809 13.1755Z" fill="white"/>
</g>
<defs>
<clipPath id="clip0_446_89">
<rect width="24" height="26.5" fill="white"/>
</clipPath>
</defs>
</svg>
