<svg width="24" height="24" viewBox="0 0 24 24" fill="none" xmlns="http://www.w3.org/2000/svg">
<g clip-path="url(#clip0_515_124)">
<path fill-rule="evenodd" clip-rule="evenodd" d="M23.9997 21.6C23.9997 22.9189 22.9197 24 21.5997 24H2.4C1.08 24 0 22.9189 0 21.6V2.4C0 1.08053 1.08 0 2.4 0H21.6C22.92 0 24 1.08053 24 2.4L23.9997 21.6Z" fill="#4389DD"/>
<path fill-rule="evenodd" clip-rule="evenodd" d="M8.75099 15.5099H6.88379V13.6587L12.4542 8.10428L14.3046 9.95548L8.75099 15.5099ZM16.1539 8.10668L15.2307 9.02988L13.3795 7.17868L14.3027 6.25548C14.3638 6.19431 14.4363 6.14579 14.5162 6.11268C14.596 6.07957 14.6816 6.06253 14.7681 6.06253C14.8545 6.06253 14.9401 6.07957 15.0199 6.11268C15.0998 6.14579 15.1723 6.19431 15.2334 6.25548L16.1539 7.17628C16.2772 7.29977 16.3464 7.46712 16.3464 7.64161C16.3464 7.8161 16.2772 7.98319 16.1539 8.10668Z" fill="white"/>
<path d="M18.3019 17.1371C18.5061 17.1368 18.7028 17.2147 18.8515 17.3547C19.0002 17.4948 19.0897 17.6864 19.1016 17.8903C19.1136 18.0943 19.047 18.295 18.9157 18.4515C18.7843 18.6079 18.5981 18.7082 18.3952 18.7318L18.3019 18.7371H5.6976C5.49333 18.7374 5.29668 18.6595 5.14798 18.5194C4.99928 18.3794 4.90979 18.1878 4.89785 17.9838C4.88592 17.7799 4.95244 17.5791 5.08379 17.4227C5.21514 17.2662 5.40136 17.166 5.60427 17.1424L5.6976 17.1371H18.3019Z" fill="white"/>
</g>
<defs>
<clipPath id="clip0_515_124">
<rect width="24" height="24" fill="white"/>
</clipPath>
</defs>
</svg>
