<svg width="10" height="12" viewBox="0 0 10 12" fill="none" xmlns="http://www.w3.org/2000/svg">
<g clip-path="url(#clip0_9_142)">
<path fill-rule="evenodd" clip-rule="evenodd" d="M10 9.92999C10.0131 10.4591 9.84045 10.976 9.51202 11.391C9.37771 11.5778 9.20121 11.7304 8.99688 11.8362C8.79254 11.942 8.56612 11.9981 8.33602 12H1.66402C1.43392 11.9981 1.2075 11.942 1.00317 11.8362C0.798831 11.7304 0.622337 11.5778 0.488022 11.391C0.159594 10.976 -0.013072 10.4591 2.21803e-05 9.92999C-0.0013962 9.51108 0.0206383 9.09243 0.0660222 8.67599C0.112459 8.27336 0.195127 7.87575 0.313022 7.48799C0.416024 7.12702 0.569902 6.78256 0.770022 6.46499C0.956454 6.17736 1.20788 5.93758 1.50402 5.76499C1.82384 5.58298 2.18714 5.49138 2.55502 5.49999C2.87445 5.82242 3.2556 6.07716 3.67569 6.24897C4.09578 6.42079 4.54619 6.50616 5.00002 6.49999C5.45385 6.50616 5.90427 6.42079 6.32436 6.24897C6.74445 6.07716 7.1256 5.82242 7.44502 5.49999C7.81472 5.49217 8.17953 5.58553 8.50002 5.76999C8.79616 5.94258 9.04759 6.18236 9.23402 6.46999C9.43414 6.78756 9.58802 7.13202 9.69102 7.49299C9.80858 7.88078 9.89091 8.27839 9.93702 8.68099C9.98122 9.09582 10.0023 9.5128 10 9.92999ZM8.00002 2.99999C8.00618 3.39482 7.93137 3.78673 7.78018 4.15152C7.629 4.51631 7.40467 4.84626 7.12102 5.12099C6.84629 5.40463 6.51635 5.62897 6.15156 5.78015C5.78676 5.93133 5.39486 6.00615 5.00002 5.99999C4.60519 6.00615 4.21328 5.93133 3.84849 5.78015C3.48369 5.62897 3.15375 5.40463 2.87902 5.12099C2.59538 4.84626 2.37104 4.51631 2.21986 4.15152C2.06868 3.78673 1.99386 3.39482 2.00002 2.99999C1.99386 2.60515 2.06868 2.21325 2.21986 1.84845C2.37104 1.48366 2.59538 1.15371 2.87902 0.878985C3.15375 0.59534 3.48369 0.371005 3.84849 0.219824C4.21328 0.068643 4.60519 -0.00617562 5.00002 -1.43792e-05C5.39486 -0.00617562 5.78676 0.068643 6.15156 0.219824C6.51635 0.371005 6.84629 0.59534 7.12102 0.878985C7.40467 1.15371 7.629 1.48366 7.78018 1.84845C7.93137 2.21325 8.00618 2.60515 8.00002 2.99999Z" fill="#EAD8D3"/>
</g>
<defs>
<clipPath id="clip0_9_142">
<rect width="10" height="12" fill="white"/>
</clipPath>
</defs>
</svg>
