<svg width="16" height="15" viewBox="0 0 16 15" fill="none" xmlns="http://www.w3.org/2000/svg">
<path d="M1.77547 12.9356L2.27692 12.3779L1.77547 12.9356ZM0.794256 11.2385L1.52782 11.0824L0.794256 11.2385ZM12.4248 5.66463L11.7755 6.04004V6.04004L12.4248 5.66463ZM14.7057 11.2385L13.9722 11.0824V11.0824L14.7057 11.2385ZM13.7245 12.9356L13.2231 12.3779V12.3779L13.7245 12.9356ZM8.73122 0.905186L8.96268 0.191796L8.73122 0.905186ZM6.76878 0.905186L6.53732 0.191796L6.76878 0.905186ZM7.75 9.75C7.33579 9.75 7 10.0858 7 10.5C7 10.9142 7.33579 11.25 7.75 11.25V10.5V9.75ZM7.76397 11.25C8.17818 11.25 8.51397 10.9142 8.51397 10.5C8.51397 10.0858 8.17818 9.75 7.76397 9.75V10.5V11.25ZM7.01397 7.25C7.01397 7.66421 7.34976 8 7.76397 8C8.17818 8 8.51397 7.66421 8.51397 7.25H7.76397H7.01397ZM8.51397 5.625C8.51397 5.21079 8.17818 4.875 7.76397 4.875C7.34976 4.875 7.01397 5.21079 7.01397 5.625H7.76397H8.51397ZM7.75 13.75V13C6.0431 13 4.82344 12.999 3.91449 12.9024C3.0026 12.8055 2.55029 12.6237 2.27692 12.3779L1.77547 12.9356L1.27402 13.4933C1.90646 14.0619 2.75185 14.2873 3.75598 14.394C4.76305 14.501 6.07776 14.5 7.75 14.5V13.75ZM3.0752 5.66463L2.42591 5.28923C1.58982 6.7353 0.931504 7.87187 0.520711 8.79642C0.111098 9.71833 -0.116394 10.5627 0.0606914 11.3947L0.794256 11.2385L1.52782 11.0824C1.45149 10.7237 1.51968 10.2423 1.8915 9.40548C2.26214 8.57129 2.871 7.51619 3.72448 6.04004L3.0752 5.66463ZM1.77547 12.9356L2.27692 12.3779C1.89637 12.0357 1.63421 11.5822 1.52782 11.0824L0.794256 11.2385L0.0606914 11.3947C0.233132 12.2048 0.65794 12.9394 1.27402 13.4933L1.77547 12.9356ZM12.4248 5.66463L11.7755 6.04004C12.629 7.51619 13.2379 8.57129 13.6085 9.40548C13.9803 10.2423 14.0485 10.7237 13.9722 11.0824L14.7057 11.2385L15.4393 11.3947C15.6164 10.5627 15.3889 9.71833 14.9793 8.79642C14.5685 7.87187 13.9102 6.7353 13.0741 5.28923L12.4248 5.66463ZM7.75 13.75V14.5C9.42224 14.5 10.7369 14.501 11.744 14.394C12.7482 14.2873 13.5935 14.0619 14.226 13.4933L13.7245 12.9356L13.2231 12.3779C12.9497 12.6237 12.4974 12.8055 11.5855 12.9024C10.6766 12.999 9.4569 13 7.75 13V13.75ZM14.7057 11.2385L13.9722 11.0824C13.8658 11.5822 13.6036 12.0357 13.2231 12.3779L13.7245 12.9356L14.226 13.4933C14.8421 12.9394 15.2669 12.2048 15.4393 11.3947L14.7057 11.2385ZM12.4248 5.66463L13.0741 5.28923C12.238 3.84315 11.5814 2.70558 10.985 1.88808C10.3902 1.0728 9.77191 0.454353 8.96268 0.191796L8.73122 0.905186L8.49976 1.61858C8.84975 1.73213 9.23346 2.0323 9.77324 2.77216C10.3114 3.5098 10.922 4.5639 11.7755 6.04004L12.4248 5.66463ZM3.0752 5.66463L3.72448 6.04004C4.57796 4.5639 5.18859 3.5098 5.72676 2.77216C6.26654 2.0323 6.65025 1.73213 7.00024 1.61858L6.76878 0.905186L6.53732 0.191796C5.72809 0.454353 5.10979 1.0728 4.51498 1.88808C3.91855 2.70558 3.26201 3.84315 2.42591 5.28923L3.0752 5.66463ZM8.73122 0.905186L8.96268 0.191796C8.1745 -0.0639319 7.3255 -0.0639319 6.53732 0.191796L6.76878 0.905186L7.00024 1.61858C7.48753 1.46047 8.01247 1.46047 8.49976 1.61858L8.73122 0.905186ZM7.75 10.5V11.25H7.76397V10.5V9.75H7.75V10.5ZM7.76397 7.25H8.51397V5.625H7.76397H7.01397V7.25H7.76397Z" fill="#FF1A1A"/>
</svg>
