<svg width="24" height="27" viewBox="0 0 24 27" fill="none" xmlns="http://www.w3.org/2000/svg">
<mask id="mask0_446_112" style="mask-type:luminance" maskUnits="userSpaceOnUse" x="0" y="0" width="20" height="26">
<path d="M0 0.000274658H19.2V25.9517H0V0.000274658Z" fill="white"/>
</mask>
<g mask="url(#mask0_446_112)">
<path fill-rule="evenodd" clip-rule="evenodd" d="M19.2 24.3515V1.60107C19.2 0.617872 18.3216 -0.132528 17.3504 0.0202715L1.3504 2.54187C0.973959 2.60132 0.631101 2.79319 0.383539 3.08294C0.135977 3.3727 -2.90653e-05 3.7413 4.65909e-09 4.1224L4.65909e-09 21.8296C-1.05943e-05 22.2106 0.136015 22.5792 0.383585 22.8688C0.631155 23.1585 0.974003 23.3503 1.3504 23.4096L17.3504 25.932C18.3216 26.0851 19.2 25.3347 19.2 24.3515Z" fill="#477ED4"/>
</g>
<path fill-rule="evenodd" clip-rule="evenodd" d="M22.9998 23.6426H20.7998V2.3093H22.9998C23.5518 2.3093 23.9998 2.7573 23.9998 3.3093V22.6426C23.9998 23.1946 23.5518 23.6426 22.9998 23.6426Z" fill="#477ED4"/>
<path fill-rule="evenodd" clip-rule="evenodd" d="M13.6271 7.79333L11.9167 16L10.5517 7.80693C10.539 7.73034 10.4995 7.66074 10.4404 7.61049C10.3812 7.56025 10.3061 7.53262 10.2285 7.53253H8.96981C8.80981 7.53253 8.67328 7.64853 8.64608 7.8072L7.28128 15.9997L5.57168 7.79333C5.55625 7.71965 5.51595 7.65351 5.45754 7.60602C5.39913 7.55854 5.32616 7.53259 5.25088 7.53253H4.55968C4.35168 7.53253 4.19648 7.72373 4.23968 7.9272L6.37034 18.1573C6.40154 18.3101 6.53568 18.4181 6.69034 18.4181H7.96154C8.12154 18.4181 8.25834 18.3029 8.28474 18.1445L9.59968 10.2541L10.9141 18.1448C10.927 18.2213 10.9667 18.2908 11.026 18.3408C11.0853 18.3909 11.1605 18.4183 11.2381 18.4181H12.5085C12.6637 18.4181 12.7973 18.3101 12.8285 18.1581L14.9597 7.92693C14.9697 7.87932 14.9689 7.83007 14.9575 7.78279C14.946 7.7355 14.9242 7.69136 14.8935 7.65358C14.8629 7.6158 14.8242 7.58533 14.7803 7.56439C14.7364 7.54345 14.6883 7.53257 14.6397 7.53253H13.9477C13.7925 7.53253 13.6591 7.64213 13.6271 7.79333Z" fill="white"/>
</svg>
