<svg width="24" height="24" viewBox="0 0 24 24" fill="none" xmlns="http://www.w3.org/2000/svg">
<path d="M24 21.6C24 22.92 22.92 24 21.6 24H2.4C1.76402 23.9982 1.15459 23.7448 0.704887 23.2951C0.255181 22.8454 0.00175929 22.236 0 21.6V2.4C0 1.08 1.08 0 2.4 0H21.6C22.92 0 24 1.08 24 2.4V21.6Z" fill="#968069"/>
<path d="M12 14.4167C11.7569 14.4167 11.5237 14.5132 11.3518 14.6852C11.1799 14.8571 11.0833 15.0902 11.0833 15.3333C11.0833 15.5764 11.1799 15.8096 11.3518 15.9815C11.5237 16.1534 11.7569 16.25 12 16.25C12.2431 16.25 12.4763 16.1534 12.6482 15.9815C12.8201 15.8096 12.9167 15.5764 12.9167 15.3333C12.9167 15.0902 12.8201 14.8571 12.6482 14.6852C12.4763 14.5132 12.2431 14.4167 12 14.4167ZM12 12H14V15.6667C14 16.1087 13.8244 16.5326 13.5118 16.8452C13.1993 17.1577 12.7754 17.3333 12.3333 17.3333H11.6667C11.2246 17.3333 10.8007 17.1577 10.4882 16.8452C10.1756 16.5326 10 16.1087 10 15.6667V10.6667H12V9.33333H14V10.6667H12V12ZM12 8.00067V9.33333L10 9.334V8.00067H12ZM14 6.66733V8L12 8.00067V6.66667L14 6.66733ZM12 5.334V6.66667L10 6.66733V5.334H12ZM14 4.00067V5.33333L12 5.334V4L14 4.00067ZM12 2.66733V4L10 4.00067V2.66733H12ZM14 1.334V2.66667L12 2.66733V1.33333H14V1.334ZM12 0V1.33333H10V0H12Z" fill="white"/>
</svg>
