<svg width="18" height="20" viewBox="0 0 18 20" fill="none" xmlns="http://www.w3.org/2000/svg">
<path d="M8.84873 0.75H9.54418C12.4793 0.75 13.9468 0.75 14.966 1.46805C15.258 1.67379 15.5172 1.91777 15.7358 2.1926C16.4987 3.1518 16.4987 4.53302 16.4987 7.29545V9.58636C16.4987 12.2532 16.4987 13.5866 16.0767 14.6516C15.3982 16.3637 13.9633 17.7142 12.1442 18.3528C11.0127 18.75 9.5959 18.75 6.76237 18.75C5.14321 18.75 4.33362 18.75 3.68703 18.523C2.64754 18.1581 1.82761 17.3864 1.4399 16.4081C1.19873 15.7995 1.19873 15.0376 1.19873 13.5136V9.3" stroke="#506273" stroke-width="1.5" stroke-linecap="round" stroke-linejoin="round"/>
<path d="M16.5 9.75C16.5 11.4069 15.1569 12.75 13.5 12.75C12.9008 12.75 12.1944 12.645 11.6118 12.8011C11.0941 12.9398 10.6898 13.3441 10.5511 13.8618C10.395 14.4444 10.5 15.1508 10.5 15.75C10.5 17.4069 9.15685 18.75 7.5 18.75" stroke="#506273" stroke-width="1.5" stroke-linecap="round" stroke-linejoin="round"/>
<path d="M4.98512 7.44727C5.66338 8.11758 6.76305 8.11758 7.44131 7.44727C8.11956 6.77696 8.11956 5.69017 7.44131 5.01986L5.90619 3.50273C5.30665 2.91022 4.37785 2.84145 3.70189 3.29642M3.71488 1.25273C3.03662 0.582423 1.93695 0.582423 1.25869 1.25273C0.580436 1.92304 0.580436 3.00983 1.25869 3.68014L2.79381 5.19727C3.40438 5.80069 4.35647 5.8609 5.0352 5.37791" stroke="#506273" stroke-width="1.5" stroke-linecap="round"/>
</svg>
