<svg width="163" height="30" viewBox="0 0 163 30" fill="none" xmlns="http://www.w3.org/2000/svg">
<path d="M12.044 15.1656C11.6215 11.3206 15.6543 8.2373 21.0435 8.27904C26.4379 8.32077 31.1542 11.4719 31.5768 15.3117C31.9993 19.1619 27.9718 22.2399 22.5773 22.1982C17.1829 22.1565 12.4666 19.0106 12.044 15.1656ZM32.5837 16.3551C32.0985 11.5867 26.6675 7.68429 20.4592 7.63212C14.2456 7.57995 9.60766 11.4041 10.0981 16.1725C10.5885 20.9409 16.0142 24.8485 22.2226 24.9006C28.4309 24.9476 33.0741 21.1287 32.5837 16.3551Z" fill="#FBB584"/>
<path d="M23.2087 24.9945C20.1515 28.1926 15.2422 28.4586 12.2424 25.5893C9.24261 22.7199 9.29478 17.8054 12.3572 14.6125C15.4144 11.4197 20.3289 11.1536 23.3183 14.0178C26.3129 16.8872 26.2659 21.8017 23.2035 24.9945M11.8772 14.5082C8.3244 18.2227 8.26702 23.9354 11.7468 27.2692C15.2266 30.6029 20.9393 30.2951 24.4921 26.5805C28.0502 22.8659 28.1075 17.1532 24.6225 13.8195C21.1428 10.4858 15.4353 10.7936 11.8772 14.5082Z" fill="#F89B6C"/>
<path d="M12.2057 2.55073C18.5653 0.166524 24.8571 2.57681 26.2553 7.93475C27.6534 13.2979 23.6311 19.5688 17.2715 21.953C10.9119 24.3424 4.62006 21.9269 3.22189 16.569C1.82371 11.2111 5.84608 4.93493 12.2057 2.55073ZM6.29474 4.59582C-0.304856 9.81811 -1.98475 17.3933 2.54367 21.5044C7.06687 25.6206 16.0872 24.7181 22.6868 19.4906C29.2864 14.2683 30.9663 6.6983 26.4379 2.58203C21.9094 -1.53424 12.8891 -0.631687 6.29474 4.59582Z" fill="#F37321"/>
<path d="M47.7443 8.90002V20.7063H45.8975V14.4823H38.9014V20.7063H37.0493V8.90002H38.9014V12.8598H45.8975V8.90002H47.7443Z" fill="#0D0D0D"/>
<path d="M52.1789 20.7062C51.3181 20.7062 50.6242 20.4766 50.1286 19.981C49.6069 19.501 49.3564 18.8854 49.3564 18.1185V17.4872C49.3564 16.7151 49.6016 16.0995 50.1286 15.6091C50.6242 15.1134 51.3128 14.8682 52.1789 14.8682H57.0047V14.8213C57.0047 13.8822 56.483 13.4022 55.45 13.4022H50.0868V11.8319H55.4187C56.5299 11.8319 57.3751 12.1241 57.9594 12.6771C58.5437 13.2301 58.8515 14.0179 58.8515 15.0508V18.1811C58.8515 18.9845 58.575 19.6158 58.0324 20.0749C57.5368 20.5079 56.8482 20.7062 55.9508 20.7062H52.1737H52.1789ZM55.5543 16.4386H52.6276C51.6728 16.4386 51.2085 16.8403 51.2085 17.6385V17.9307C51.2085 18.7341 51.6728 19.1149 52.6276 19.1149H55.5543C56.5091 19.1149 57.0047 18.7289 57.0047 17.9307V17.6385C57.0047 16.8351 56.5091 16.4386 55.5543 16.4386Z" fill="#0D0D0D"/>
<path d="M64.2617 11.8319H66.0824C67.225 11.8319 68.1328 12.171 68.7953 12.8336C69.4422 13.5118 69.7814 14.4352 69.7814 15.6247V20.7114H67.9345V15.7186C67.9345 14.9778 67.778 14.4404 67.5015 14.1013C67.1311 13.6683 66.625 13.4388 65.9468 13.4388H64.3765C63.7139 13.4388 63.2026 13.6683 62.8374 14.1013C62.5609 14.4404 62.4357 14.9778 62.4357 15.7186V20.7114H60.5889V15.6247C60.5889 14.4404 60.9123 13.5118 61.5749 12.8336C62.2218 12.171 63.1296 11.8319 64.2721 11.8319H64.2617Z" fill="#0D0D0D"/>
<path d="M78.3058 19.5219C77.6433 20.3253 76.8242 20.7062 75.8538 20.7062H74.7113C73.6783 20.7062 72.8644 20.3827 72.2593 19.7358C71.6749 19.1358 71.3984 18.2698 71.3984 17.1638V11.8319H73.2348V17.1794C73.2348 17.8263 73.3757 18.3063 73.6522 18.5985C73.96 18.9376 74.3774 19.1097 74.8991 19.1097H75.7025C76.2242 19.1097 76.6416 18.9376 76.9651 18.5985C77.2416 18.3063 77.3981 17.8263 77.3981 17.1794V11.8319H79.2188V17.1794C79.2188 17.8263 79.3597 18.3063 79.6362 18.5985C79.944 18.9376 80.3614 19.1097 80.8831 19.1097H81.6865C82.2082 19.1097 82.6256 18.9376 82.949 18.5985C83.2255 18.3063 83.3821 17.8263 83.3821 17.1794V11.8319H85.2185V17.1638C85.2185 18.275 84.9107 19.1358 84.3263 19.7358C83.7107 20.3827 82.8917 20.7062 81.8587 20.7062H80.7318C79.7771 20.7062 78.958 20.3201 78.3111 19.5219H78.3058Z" fill="#0D0D0D"/>
<path d="M90.6343 13.4336C89.9717 13.4336 89.4604 13.6631 89.0952 14.0962C88.8187 14.4353 88.6935 14.9726 88.6935 15.7135V20.7062H86.8467V8.86865H88.6935V12.3693C89.2152 12.0145 89.8361 11.832 90.5299 11.832H92.3507C93.4932 11.832 94.401 12.1711 95.0636 12.8336C95.7105 13.5118 96.0496 14.4353 96.0496 15.6248V20.7114H94.1975V15.7187C94.1975 14.9778 94.041 14.4405 93.7645 14.1014C93.3941 13.6684 92.8881 13.4388 92.2098 13.4388H90.6395L90.6343 13.4336Z" fill="#0D0D0D"/>
<path d="M100.39 20.7062C99.529 20.7062 98.8351 20.4766 98.3395 19.981C97.8178 19.501 97.5674 18.8854 97.5674 18.1185V17.4872C97.5674 16.7151 97.8126 16.0995 98.3395 15.6091C98.8351 15.1134 99.5238 14.8682 100.39 14.8682H105.216V14.8213C105.216 13.8822 104.694 13.4022 103.661 13.4022H98.2978V11.8319H103.63C104.741 11.8319 105.586 12.1241 106.17 12.6771C106.755 13.2301 107.062 14.0179 107.062 15.0508V18.1811C107.062 18.9845 106.786 19.6158 106.243 20.0749C105.748 20.5079 105.059 20.7062 104.162 20.7062H100.385H100.39ZM103.765 16.4386H100.838C99.8838 16.4386 99.4194 16.8403 99.4194 17.6385V17.9307C99.4194 18.7341 99.8838 19.1149 100.838 19.1149H103.765C104.72 19.1149 105.216 18.7289 105.216 17.9307V17.6385C105.216 16.8351 104.72 16.4386 103.765 16.4386Z" fill="#0D0D0D"/>
<path d="M115.066 20.7114H113.354V19.0941H114.883C115.645 19.0837 116.177 18.875 116.485 18.4628C116.73 18.1237 116.866 17.5811 116.886 16.8299V8.90515H118.77V16.9551C118.77 18.2489 118.462 19.1984 117.846 19.7932C117.231 20.4088 116.302 20.7166 115.071 20.7166L115.066 20.7114Z" fill="#0D0D0D"/>
<path d="M123.194 20.7113C122.333 20.7113 121.644 20.4714 121.143 19.9862C120.627 19.501 120.371 18.8801 120.371 18.1185V17.4872C120.371 16.7151 120.627 16.089 121.143 15.6038C121.644 15.1082 122.333 14.863 123.194 14.863H128.019V14.816C128.019 13.8718 127.498 13.397 126.465 13.397H121.101V11.8267H126.433C127.545 11.8267 128.39 12.1084 128.979 12.6718C129.574 13.2144 129.871 14.0074 129.871 15.0456V18.1758C129.871 18.9793 129.6 19.6105 129.052 20.0749C128.557 20.4974 127.863 20.7061 126.971 20.7061H123.194V20.7113ZM126.569 16.4386H123.637C122.693 16.4386 122.218 16.8403 122.218 17.6437V17.9359C122.218 18.7288 122.693 19.1253 123.637 19.1253H126.569C127.534 19.1253 128.019 18.7288 128.019 17.9359V17.6437C128.019 16.8403 127.534 16.4386 126.569 16.4386Z" fill="#0D0D0D"/>
<path d="M131.562 15.4526C131.562 14.2892 131.875 13.4022 132.501 12.7866C133.127 12.1606 133.988 11.8423 135.089 11.8319H137.509C138.61 11.8423 139.471 12.1606 140.102 12.7866C140.739 13.4022 141.057 14.2944 141.057 15.4526V17.1012C141.057 18.2541 140.739 19.1358 140.102 19.7514C139.476 20.3775 138.615 20.6957 137.525 20.7062H133.409V23.7581H131.557V15.4473L131.562 15.4526ZM133.414 15.5621V19.1097H137.389C138.036 19.1097 138.521 18.9115 138.84 18.5098C139.085 18.1707 139.21 17.6698 139.21 17.0125V15.5621C139.21 14.8943 139.085 14.3883 138.84 14.0492C138.521 13.637 138.036 13.4336 137.389 13.4336H135.214C134.567 13.4336 134.087 13.637 133.779 14.0492C133.534 14.3883 133.409 14.8943 133.409 15.5621H133.414Z" fill="#0D0D0D"/>
<path d="M145.393 20.7113C144.532 20.7113 143.843 20.4714 143.342 19.9862C142.826 19.501 142.57 18.8801 142.57 18.1185V17.4872C142.57 16.7151 142.826 16.089 143.342 15.6038C143.843 15.1082 144.532 14.863 145.393 14.863H150.219V14.816C150.219 13.8718 149.697 13.397 148.664 13.397H143.301V11.8267H148.633C149.744 11.8267 150.589 12.1084 151.178 12.6718C151.773 13.2144 152.071 14.0074 152.071 15.0456V18.1758C152.071 18.9793 151.799 19.6105 151.252 20.0749C150.756 20.4974 150.062 20.7061 149.17 20.7061H145.393V20.7113ZM148.768 16.4386H145.836C144.892 16.4386 144.417 16.8403 144.417 17.6437V17.9359C144.417 18.7288 144.892 19.1253 145.836 19.1253H148.768C149.733 19.1253 150.219 18.7288 150.219 17.9359V17.6437C150.219 16.8403 149.733 16.4386 148.768 16.4386Z" fill="#0D0D0D"/>
<path d="M157.481 11.8319H159.302C160.455 11.8319 161.357 12.1658 162.014 12.8336C162.672 13.5014 163 14.43 163 15.6247V20.7114H161.154V15.7186C161.154 14.9778 161.008 14.4404 160.721 14.1013C160.361 13.6579 159.839 13.4388 159.166 13.4388H157.59C156.933 13.4388 156.422 13.6579 156.051 14.1013C155.785 14.4404 155.65 14.9778 155.65 15.7186V20.7114H153.803V15.6247C153.803 14.4352 154.131 13.5014 154.789 12.8336C155.446 12.1658 156.343 11.8319 157.486 11.8319H157.481Z" fill="#0D0D0D"/>
</svg>
