<svg width="18" height="18" viewBox="0 0 18 18" fill="none" xmlns="http://www.w3.org/2000/svg">
<path d="M6.13777 2.37341L0.962177 6.9023C0.518343 7.29067 0.815926 7.98047 1.42731 7.98047C1.80082 7.98047 2.10362 8.26016 2.10362 8.60516V11.4883C2.10362 13.9687 2.10362 15.2089 2.93787 15.9794C3.77211 16.75 5.11481 16.75 7.8002 16.75H9.69906C12.3845 16.75 13.7272 16.75 14.5614 15.9794C15.3956 15.2089 15.3956 13.9687 15.3956 11.4883V8.60516C15.3956 8.26016 15.6984 7.98047 16.072 7.98047C16.6833 7.98047 16.9809 7.29067 16.5371 6.9023L11.3615 2.37341C10.1247 1.29114 9.50628 0.75 8.74963 0.75C7.99299 0.75 7.37458 1.29114 6.13777 2.37341Z" fill="white" stroke="#565656" stroke-width="1.5" stroke-linecap="round" stroke-linejoin="round"/>
<path d="M8.74963 12.3055H8.75762" stroke="#565656" stroke-width="2" stroke-linecap="round" stroke-linejoin="round"/>
</svg>
