<svg width="21" height="22" viewBox="0 0 21 22" fill="none" xmlns="http://www.w3.org/2000/svg">
<path d="M19.7225 5.8748L19.2297 5.01967C18.8571 4.37294 18.6707 4.04958 18.3537 3.92064C18.0367 3.79169 17.6781 3.89344 16.961 4.09694L15.7429 4.44004C15.285 4.54562 14.8047 4.48573 14.3867 4.27095L14.0504 4.07691C13.6919 3.84732 13.4162 3.5088 13.2636 3.11089L12.9302 2.11521C12.711 1.45632 12.6014 1.12688 12.3404 0.93844C12.0795 0.750006 11.7329 0.750006 11.0398 0.750006H9.9269C9.23373 0.750006 8.88715 0.750006 8.62622 0.93844C8.36529 1.12688 8.25569 1.45632 8.03649 2.11521L7.70311 3.11089C7.55049 3.5088 7.27476 3.84732 6.91629 4.07691L6.57999 4.27095C6.16196 4.48573 5.68163 4.54562 5.22381 4.44004L4.00566 4.09694C3.28856 3.89344 2.93001 3.79169 2.61298 3.92064C2.29594 4.04958 2.10962 4.37294 1.73696 5.01967L1.24422 5.8748C0.894908 6.48101 0.720254 6.78411 0.75415 7.10678C0.788049 7.42945 1.02186 7.68947 1.48949 8.20952L2.51877 9.36025C2.77033 9.67873 2.94894 10.2337 2.94894 10.7327C2.94894 11.232 2.77039 11.7869 2.51879 12.1054L1.4895 13.2562C1.02187 13.7762 0.788051 14.0362 0.754152 14.3589C0.720254 14.6816 0.894914 14.9847 1.24422 15.5909L1.73695 16.446C2.1096 17.0927 2.29594 17.4161 2.61298 17.545C2.93001 17.674 3.28857 17.5722 4.00568 17.3687L5.22377 17.0256C5.68167 16.92 6.16209 16.9799 6.58017 17.1948L6.91642 17.3889C7.27482 17.6184 7.55048 17.9569 7.70308 18.3548L8.03649 19.3506C8.25569 20.0095 8.36529 20.3389 8.62622 20.5273C8.88715 20.7158 9.23373 20.7158 9.9269 20.7158H11.0398C11.7329 20.7158 12.0795 20.7158 12.3404 20.5273C12.6014 20.3389 12.711 20.0095 12.9302 19.3506L13.2636 18.3548C13.4162 17.9569 13.6918 17.6184 14.0502 17.3889L14.3865 17.1948C14.8046 16.9799 15.285 16.92 15.7429 17.0256L16.961 17.3687C17.6781 17.5722 18.0367 17.674 18.3537 17.545C18.6707 17.4161 18.8571 17.0927 19.2297 16.446L19.7224 15.5909C20.0718 14.9847 20.2464 14.6816 20.2125 14.3589C20.1786 14.0362 19.9448 13.7762 19.4772 13.2562L18.4479 12.1054C18.1963 11.7869 18.0177 11.232 18.0177 10.7327C18.0177 10.2337 18.1963 9.67873 18.4479 9.36025L19.4772 8.20952C19.9448 7.68947 20.1786 7.42945 20.2125 7.10678C20.2464 6.78411 20.0718 6.48101 19.7225 5.8748Z" fill="white" fill-opacity="0.1" stroke="#D1D1D1" stroke-width="1.5" stroke-linecap="round"/>
<path d="M13.9353 10.7249C13.9353 12.6546 12.371 14.2189 10.4413 14.2189C8.51159 14.2189 6.94727 12.6546 6.94727 10.7249C6.94727 8.79519 8.51159 7.23087 10.4413 7.23087C12.371 7.23087 13.9353 8.79519 13.9353 10.7249Z" stroke="#D1D1D1" stroke-width="1.5"/>
</svg>
