<svg width="24" height="24" viewBox="0 0 24 24" fill="none" xmlns="http://www.w3.org/2000/svg">
<circle cx="12" cy="12" r="8.25" fill="white" fill-opacity="0.05" stroke="#BEBEBE" stroke-width="1.5"/>
<path d="M14.2458 9.75C14.2458 10.9926 13.237 12 11.9926 12C10.7482 12 9.73937 10.9926 9.73937 9.75C9.73937 8.50736 10.7482 7.5 11.9926 7.5C13.237 7.5 14.2458 8.50736 14.2458 9.75Z" fill="white" fill-opacity="0.05"/>
<path d="M7.9502 16.5C10.0487 14.302 13.9291 14.1986 16.0502 16.5M14.2458 9.75C14.2458 10.9926 13.237 12 11.9926 12C10.7482 12 9.73937 10.9926 9.73937 9.75C9.73937 8.50736 10.7482 7.5 11.9926 7.5C13.237 7.5 14.2458 8.50736 14.2458 9.75Z" stroke="#BEBEBE" stroke-width="1.5" stroke-linecap="round"/>
</svg>
