<svg width="16" height="16" viewBox="0 0 16 16" fill="none" xmlns="http://www.w3.org/2000/svg">
<path d="M10.0313 11.8095C9.98143 13.0637 8.93623 14.1287 7.53605 14.0944C7.2103 14.0865 6.80766 13.9729 6.00241 13.7458C4.06446 13.1991 2.38213 12.2804 1.97849 10.2224C1.9043 9.84411 1.9043 9.41842 1.9043 8.56703L1.9043 7.43297C1.9043 6.58158 1.9043 6.15588 1.97849 5.77758C2.38213 3.71955 4.06446 2.80087 6.00241 2.25424C6.80767 2.0271 7.2103 1.91354 7.53605 1.90557C8.93623 1.87131 9.98143 2.93626 10.0313 4.19048" stroke="#BEBEBE" stroke-width="1.5" stroke-linecap="round"/>
<path d="M14.0952 8.00002H6.64551M14.0952 8.00002C14.0952 7.52579 12.7446 6.63978 12.4021 6.3069M14.0952 8.00002C14.0952 8.47425 12.7446 9.36025 12.4021 9.69314" stroke="#BEBEBE" stroke-width="1.5" stroke-linecap="round" stroke-linejoin="round"/>
</svg>
