<svg width="40" height="40" viewBox="0 0 40 40" fill="none" xmlns="http://www.w3.org/2000/svg">
<path fill-rule="evenodd" clip-rule="evenodd" d="M17.2458 24.2923C12.259 24.2923 8 25.046 8 28.0661C8 31.0862 12.2331 31.8672 17.2458 31.8672C22.2339 31.8672 26.4917 31.1122 26.4917 28.0934C26.4917 25.0746 22.2599 24.2923 17.2458 24.2923Z" fill="white" stroke="black" stroke-width="1.5" stroke-linecap="round" stroke-linejoin="round"/>
<path fill-rule="evenodd" clip-rule="evenodd" d="M17.2458 19.9849C20.5189 19.9849 23.1719 17.3319 23.1719 14.0588C23.1719 10.7857 20.5189 8.13277 17.2458 8.13277C13.9741 8.13277 11.3211 10.7857 11.3211 14.0588C11.3094 17.3202 13.9429 19.9732 17.2056 19.9849H17.2458Z" fill="white" stroke="black" stroke-width="1.5" stroke-linecap="round" stroke-linejoin="round"/>
<path d="M29.3459 15.8117V21.0139" stroke="black" stroke-width="1.5" stroke-linecap="round" stroke-linejoin="round"/>
<path d="M32 18.4126H26.6941" stroke="black" stroke-width="1.5" stroke-linecap="round" stroke-linejoin="round"/>
</svg>
