<svg width="40" height="40" viewBox="0 0 40 40" fill="none" xmlns="http://www.w3.org/2000/svg">
<path d="M18.2 32H13.509C11.6546 32 10.1796 31.0976 8.85519 29.8359C6.14404 27.2529 10.5954 25.1888 12.2931 24.1779C15.3537 22.3555 19.0469 21.9341 22.4 22.9137" stroke="#101010" stroke-width="1.5" stroke-linecap="round" stroke-linejoin="round"/>
<path d="M25.4 13.4C25.4 16.3823 22.9823 18.8 20 18.8C17.0177 18.8 14.6 16.3823 14.6 13.4C14.6 10.4177 17.0177 8 20 8C22.9823 8 25.4 10.4177 25.4 13.4Z" fill="#D5E9FD" stroke="#101010" stroke-width="1.5"/>
<path d="M27.7198 22.2181C28.1222 21.7822 28.3234 21.5642 28.5372 21.437C29.0531 21.1302 29.6883 21.1207 30.2128 21.4119C30.4302 21.5325 30.6376 21.7444 31.0523 22.1681C31.4671 22.5918 31.6745 22.8036 31.7926 23.0257C32.0777 23.5615 32.0683 24.2104 31.768 24.7374C31.6435 24.9558 31.4301 25.1613 31.0033 25.5724L25.9254 30.4633C25.1166 31.2423 24.7122 31.6318 24.2068 31.8292C23.7014 32.0266 23.1457 32.0121 22.0345 31.983L21.8833 31.9791C21.545 31.9702 21.3759 31.9658 21.2775 31.8542C21.1792 31.7426 21.1926 31.5703 21.2195 31.2257L21.2341 31.0386C21.3096 30.0687 21.3474 29.5838 21.5368 29.1478C21.7262 28.7119 22.0529 28.3579 22.7063 27.65L27.7198 22.2181Z" fill="#D5E9FD" stroke="#101010" stroke-width="1.5" stroke-linejoin="round"/>
</svg>
