<svg width="165" height="30" viewBox="0 0 165 30" fill="none" xmlns="http://www.w3.org/2000/svg">
<path d="M12.044 15.1656C11.6215 11.3206 15.6543 8.23733 21.0435 8.27907C26.4379 8.32081 31.1542 11.4719 31.5768 15.3117C31.9993 19.1619 27.9718 22.24 22.5773 22.1982C17.1829 22.1565 12.4666 19.0106 12.044 15.1656ZM32.5837 16.3551C32.0985 11.5867 26.6675 7.68432 20.4592 7.63215C14.2456 7.57998 9.60766 11.4041 10.0981 16.1725C10.5885 20.9409 16.0142 24.8485 22.2226 24.9007C28.4309 24.9476 33.0741 21.1287 32.5837 16.3551Z" fill="#FBB584"/>
<path d="M23.2087 24.9946C20.1515 28.1926 15.2422 28.4587 12.2424 25.5893C9.24261 22.7199 9.29478 17.8054 12.3572 14.6126C15.4144 11.4197 20.3289 11.1537 23.3183 14.0178C26.3129 16.8872 26.2659 21.8017 23.2035 24.9946M11.8772 14.5082C8.3244 18.2228 8.26702 23.9355 11.7468 27.2692C15.2266 30.6029 20.9393 30.2951 24.4921 26.5806C28.0502 22.866 28.1075 17.1533 24.6225 13.8196C21.1428 10.4859 15.4353 10.7937 11.8772 14.5082Z" fill="#F89B6C"/>
<path d="M12.2057 2.55073C18.5653 0.166524 24.8571 2.57681 26.2553 7.93475C27.6534 13.2979 23.6311 19.5688 17.2715 21.953C10.9119 24.3424 4.62006 21.9269 3.22189 16.569C1.82371 11.2111 5.84608 4.93493 12.2057 2.55073ZM6.29474 4.59582C-0.304856 9.81811 -1.98475 17.3933 2.54367 21.5044C7.06687 25.6206 16.0872 24.7181 22.6868 19.4906C29.2864 14.2683 30.9663 6.6983 26.4379 2.58203C21.9094 -1.53424 12.8891 -0.631687 6.29474 4.59582Z" fill="#F37321"/>
<path d="M49.3141 8.90054V20.7068H47.4673V14.4828H40.4712V20.7068H38.6191V8.90054H40.4712V12.8603H47.4673V8.90054H49.3141Z" fill="white"/>
<path d="M53.7487 20.7068C52.8879 20.7068 52.194 20.4772 51.6984 19.9816C51.1767 19.5016 50.9263 18.886 50.9263 18.1191V17.4878C50.9263 16.7157 51.1715 16.1001 51.6984 15.6097C52.194 15.1141 52.8827 14.8689 53.7487 14.8689H58.5745V14.8219C58.5745 13.8828 58.0528 13.4029 57.0198 13.4029H51.6567V11.8325H56.9885C58.0998 11.8325 58.9449 12.1247 59.5292 12.6777C60.1135 13.2307 60.4213 14.0185 60.4213 15.0515V18.1817C60.4213 18.9851 60.1448 19.6164 59.6023 20.0755C59.1066 20.5085 58.418 20.7068 57.5207 20.7068H53.7435H53.7487ZM57.1242 16.4392H54.1974C53.2427 16.4392 52.7783 16.8409 52.7783 17.6391V17.9313C52.7783 18.7347 53.2427 19.1156 54.1974 19.1156H57.1242C58.0789 19.1156 58.5745 18.7295 58.5745 17.9313V17.6391C58.5745 16.8357 58.0789 16.4392 57.1242 16.4392Z" fill="white"/>
<path d="M65.831 11.8325H67.6518C68.7943 11.8325 69.7021 12.1716 70.3647 12.8342C71.0116 13.5124 71.3507 14.4359 71.3507 15.6253V20.712H69.5038V15.7193C69.5038 14.9784 69.3473 14.4411 69.0708 14.102C68.7004 13.6689 68.1944 13.4394 67.5161 13.4394H65.9458C65.2832 13.4394 64.772 13.6689 64.4068 14.102C64.1303 14.4411 64.0051 14.9784 64.0051 15.7193V20.712H62.1582V15.6253C62.1582 14.4411 62.4817 13.5124 63.1442 12.8342C63.7911 12.1716 64.6989 11.8325 65.8415 11.8325H65.831Z" fill="white"/>
<path d="M79.8762 19.5225C79.2136 20.3259 78.3945 20.7068 77.4241 20.7068H76.2816C75.2486 20.7068 74.4348 20.3833 73.8296 19.7364C73.2453 19.1364 72.9688 18.2704 72.9688 17.1644V11.8325H74.8052V17.18C74.8052 17.8269 74.946 18.3069 75.2225 18.5991C75.5303 18.9382 75.9477 19.1103 76.4694 19.1103H77.2728C77.7945 19.1103 78.2119 18.9382 78.5354 18.5991C78.8119 18.3069 78.9684 17.8269 78.9684 17.18V11.8325H80.7891V17.18C80.7891 17.8269 80.93 18.3069 81.2065 18.5991C81.5143 18.9382 81.9317 19.1103 82.4534 19.1103H83.2568C83.7785 19.1103 84.1959 18.9382 84.5194 18.5991C84.7959 18.3069 84.9524 17.8269 84.9524 17.18V11.8325H86.7888V17.1644C86.7888 18.2756 86.481 19.1364 85.8967 19.7364C85.281 20.3833 84.462 20.7068 83.429 20.7068H82.3021C81.3474 20.7068 80.5283 20.3207 79.8814 19.5225H79.8762Z" fill="white"/>
<path d="M92.2036 13.4342C91.541 13.4342 91.0298 13.6637 90.6646 14.0967C90.3881 14.4359 90.2629 14.9732 90.2629 15.714V20.7068H88.416V8.86924H90.2629V12.3699C90.7846 12.0151 91.4054 11.8325 92.0993 11.8325H93.92C95.0626 11.8325 95.9703 12.1716 96.6329 12.8342C97.2798 13.5124 97.6189 14.4359 97.6189 15.6253V20.712H95.7669V15.7193C95.7669 14.9784 95.6104 14.4411 95.3339 14.102C94.9634 13.6689 94.4574 13.4394 93.7792 13.4394H92.2088L92.2036 13.4342Z" fill="white"/>
<path d="M101.96 20.7068C101.099 20.7068 100.405 20.4772 99.9098 19.9816C99.3881 19.5016 99.1377 18.886 99.1377 18.1191V17.4878C99.1377 16.7157 99.3829 16.1001 99.9098 15.6097C100.405 15.1141 101.094 14.8689 101.96 14.8689H106.786V14.8219C106.786 13.8828 106.264 13.4029 105.231 13.4029H99.8681V11.8325H105.2C106.311 11.8325 107.156 12.1247 107.741 12.6777C108.325 13.2307 108.633 14.0185 108.633 15.0515V18.1817C108.633 18.9851 108.356 19.6164 107.814 20.0755C107.318 20.5085 106.629 20.7068 105.732 20.7068H101.955H101.96ZM105.336 16.4392H102.409C101.454 16.4392 100.99 16.8409 100.99 17.6391V17.9313C100.99 18.7347 101.454 19.1156 102.409 19.1156H105.336C106.29 19.1156 106.786 18.7295 106.786 17.9313V17.6391C106.786 16.8357 106.29 16.4392 105.336 16.4392Z" fill="white"/>
<path d="M116.344 19.1703H114.633V17.5531H116.161C116.923 17.5426 117.455 17.3339 117.763 16.9218C118.008 16.5827 118.144 16.0401 118.165 15.2888V7.36411H120.048V15.4141C120.048 16.7079 119.74 17.6574 119.125 18.2521C118.509 18.8678 117.58 19.1756 116.349 19.1756L116.344 19.1703Z" fill="white"/>
<path d="M124.472 19.1703C123.611 19.1703 122.922 18.9303 122.422 18.4451C121.905 17.96 121.649 17.3391 121.649 16.5774V15.9462C121.649 15.174 121.905 14.548 122.422 14.0628C122.922 13.5672 123.611 13.322 124.472 13.322H129.298V13.275C129.298 12.3307 128.776 11.856 127.743 11.856H122.38V10.2856H127.712C128.823 10.2856 129.668 10.5674 130.258 11.1308C130.852 11.6734 131.15 12.4664 131.15 13.5046V16.6348C131.15 17.4382 130.878 18.0695 130.331 18.5338C129.835 18.9564 129.141 19.1651 128.249 19.1651H124.472V19.1703ZM127.847 14.8975H124.915C123.971 14.8975 123.496 15.2992 123.496 16.1027V16.3948C123.496 17.1878 123.971 17.5843 124.915 17.5843H127.847C128.812 17.5843 129.298 17.1878 129.298 16.3948V16.1027C129.298 15.2992 128.812 14.8975 127.847 14.8975Z" fill="white"/>
<path d="M132.84 13.9115C132.84 12.7481 133.153 11.8612 133.779 11.2456C134.405 10.6195 135.266 10.3013 136.367 10.2909H138.788C139.888 10.3013 140.749 10.6195 141.381 11.2456C142.017 11.8612 142.335 12.7533 142.335 13.9115V15.5601C142.335 16.7131 142.017 17.5948 141.381 18.2104C140.754 18.8364 139.894 19.1547 138.803 19.1651H134.687V22.2171H132.835V13.9063L132.84 13.9115ZM134.692 14.0211V17.5687H138.668C139.315 17.5687 139.8 17.3704 140.118 16.9687C140.363 16.6296 140.488 16.1288 140.488 15.4714V14.0211C140.488 13.3533 140.363 12.8472 140.118 12.5081C139.8 12.096 139.315 11.8925 138.668 11.8925H136.492C135.845 11.8925 135.365 12.096 135.057 12.5081C134.812 12.8472 134.687 13.3533 134.687 14.0211H134.692Z" fill="white"/>
<path d="M146.671 19.1703C145.81 19.1703 145.122 18.9303 144.621 18.4451C144.104 17.96 143.849 17.3391 143.849 16.5774V15.9462C143.849 15.174 144.104 14.548 144.621 14.0628C145.122 13.5672 145.81 13.322 146.671 13.322H151.497V13.275C151.497 12.3307 150.975 11.856 149.942 11.856H144.579V10.2856H149.911C151.022 10.2856 151.867 10.5674 152.457 11.1308C153.052 11.6734 153.349 12.4664 153.349 13.5046V16.6348C153.349 17.4382 153.078 18.0695 152.53 18.5338C152.034 18.9564 151.34 19.1651 150.448 19.1651H146.671V19.1703ZM150.047 14.8975H147.115C146.17 14.8975 145.695 15.2992 145.695 16.1027V16.3948C145.695 17.1878 146.17 17.5843 147.115 17.5843H150.047C151.012 17.5843 151.497 17.1878 151.497 16.3948V16.1027C151.497 15.2992 151.012 14.8975 150.047 14.8975Z" fill="white"/>
<path d="M158.759 10.2909H160.58C161.733 10.2909 162.635 10.6248 163.293 11.2925C163.95 11.9603 164.279 12.889 164.279 14.0837V19.1703H162.432V14.1776C162.432 13.4368 162.286 12.8994 161.999 12.5603C161.639 12.1168 161.117 11.8977 160.444 11.8977H158.869C158.211 11.8977 157.7 12.1168 157.33 12.5603C157.064 12.8994 156.928 13.4368 156.928 14.1776V19.1703H155.081V14.0837C155.081 12.8942 155.41 11.9603 156.067 11.2925C156.724 10.6248 157.622 10.2909 158.764 10.2909H158.759Z" fill="white"/>
</svg>
