<svg width="40" height="40" viewBox="0 0 40 40" fill="none" xmlns="http://www.w3.org/2000/svg">
<path d="M31.106 14.1603L30.5136 13.1324C30.0657 12.355 29.8417 11.9663 29.4606 11.8113C29.0795 11.6563 28.6485 11.7786 27.7865 12.0232L26.3223 12.4356C25.7719 12.5625 25.1945 12.4906 24.692 12.2324L24.2878 11.9991C23.8569 11.7231 23.5255 11.3162 23.342 10.8379L22.9412 9.64105C22.6778 8.84903 22.546 8.45302 22.2324 8.22651C21.9187 8 21.5021 8 20.6689 8H19.3311C18.4979 8 18.0813 8 17.7676 8.22651C17.454 8.45302 17.3222 8.84903 17.0588 9.64105L16.658 10.8379C16.4746 11.3162 16.1431 11.7231 15.7122 11.9991L15.308 12.2324C14.8055 12.4906 14.2281 12.5625 13.6778 12.4356L12.2135 12.0232C11.3515 11.7786 10.9205 11.6563 10.5394 11.8113C10.1583 11.9663 9.93431 12.355 9.48636 13.1324L8.89405 14.1603C8.47416 14.889 8.26422 15.2533 8.30496 15.6412C8.34571 16.0291 8.62677 16.3416 9.18888 16.9668L10.4261 18.35C10.7285 18.7328 10.9432 19.4 10.9432 19.9998C10.9432 20.6 10.7286 21.267 10.4262 21.6499L9.18889 23.0331L9.18888 23.0331C8.62677 23.6583 8.34571 23.9708 8.30496 24.3587C8.26422 24.7466 8.47417 25.1109 8.89405 25.8396L9.48634 26.8675C9.93428 27.6449 10.1583 28.0336 10.5394 28.1886C10.9205 28.3436 11.3515 28.2213 12.2135 27.9767L13.6777 27.5642C14.2281 27.4373 14.8056 27.5093 15.3082 27.7676L15.7124 28.0009C16.1432 28.2768 16.4745 28.6837 16.658 29.162L17.0588 30.3589C17.3222 31.151 17.454 31.547 17.7676 31.7735C18.0813 32 18.4979 32 19.3311 32H20.6689C21.5021 32 21.9187 32 22.2324 31.7735C22.546 31.547 22.6778 31.151 22.9412 30.3589L23.342 29.162C23.5255 28.6837 23.8568 28.2768 24.2876 28.0009L24.6918 27.7676C25.1944 27.5093 25.7719 27.4373 26.3223 27.5642L27.7865 27.9767C28.6485 28.2213 29.0795 28.3436 29.4606 28.1886C29.8417 28.0336 30.0657 27.6449 30.5137 26.8675L31.106 25.8396C31.5258 25.1109 31.7358 24.7466 31.695 24.3587C31.6543 23.9708 31.3732 23.6583 30.8111 23.0331L29.5738 21.6499C29.2714 21.267 29.0568 20.6 29.0568 19.9998C29.0568 19.4 29.2715 18.7328 29.5739 18.35L30.8111 16.9668C31.3732 16.3416 31.6543 16.0291 31.695 15.6412C31.7358 15.2533 31.5258 14.889 31.106 14.1603Z" fill="white" stroke="#101010" stroke-width="1.5" stroke-linecap="round"/>
<path d="M24.1493 19.9904C24.1493 22.31 22.2689 24.1904 19.9493 24.1904C17.6297 24.1904 15.7493 22.31 15.7493 19.9904C15.7493 17.6708 17.6297 15.7904 19.9493 15.7904C22.2689 15.7904 24.1493 17.6708 24.1493 19.9904Z" fill="#D5E9FD" stroke="#101010" stroke-width="1.5"/>
</svg>
